<svg xmlns="http://www.w3.org/2000/svg" xmlns:xlink="http://www.w3.org/1999/xlink" width="162.263" height="53.078" viewBox="0 0 162.263 53.078">
  <defs>
    <clipPath id="clip-path">
      <path id="Path_1404" data-name="Path 1404" d="M171.684,466.749l-7.316-4.226-14.111-8.15c-.784-.451-1.567-.178-1.567.768v33.2c0,.711.558,1.015,1.24.634l14.438-8.337,7.316-4.223,7.033-4.061c.825-.476.746-1.129.051-1.5S171.684,466.749,171.684,466.749Z" transform="translate(-148.69 -454.162)" fill="none"/>
    </clipPath>
    <linearGradient id="linear-gradient" x1="0.5" x2="0.5" y2="1" gradientUnits="objectBoundingBox">
      <stop offset="0" stop-color="#257cb0"/>
      <stop offset="0.21" stop-color="#3c8fb3"/>
      <stop offset="0.74" stop-color="#73bdba"/>
      <stop offset="1" stop-color="#89cfbd"/>
    </linearGradient>
    <linearGradient id="linear-gradient-2" y1="0.5" x2="1" y2="0.5" gradientUnits="objectBoundingBox">
      <stop offset="0" stop-color="#52c1ad"/>
      <stop offset="1" stop-color="#dee89a"/>
    </linearGradient>
    <linearGradient id="linear-gradient-3" x1="0.5" x2="0.5" y2="1" gradientUnits="objectBoundingBox">
      <stop offset="0" stop-color="#ec413d"/>
      <stop offset="0.19" stop-color="#d74352"/>
      <stop offset="0.74" stop-color="#a04888"/>
      <stop offset="1" stop-color="#8a4a9d"/>
    </linearGradient>
    <linearGradient id="linear-gradient-4" x1="0.5" x2="0.5" y2="1" gradientUnits="objectBoundingBox">
      <stop offset="0" stop-color="#f58879"/>
      <stop offset="0.62" stop-color="#fbb276"/>
      <stop offset="1" stop-color="#fec874"/>
    </linearGradient>
  </defs>
  <g id="android-bg-tran" transform="translate(-1180 8071)">
    <rect id="Rectangle_222" data-name="Rectangle 222" width="162.263" height="53.078" rx="8" transform="translate(1180 -8071)" fill="none"/>
    <g id="PLAY" transform="translate(1192.169 -8060.223)">
      <g id="Group_374" data-name="Group 374" clip-path="url(#clip-path)">
        <path id="Path_1400" data-name="Path 1400" d="M38.37,32.21V68.154L56.494,50.182Z" transform="translate(-38.367 -32.769)" fill="url(#linear-gradient)"/>
        <path id="Path_1401" data-name="Path 1401" d="M61.361,45.077l-7.316-4.226L38.37,31.8v.13L56.494,49.9Z" transform="translate(-38.367 -32.489)" fill="url(#linear-gradient-2)"/>
        <path id="Path_1402" data-name="Path 1402" d="M38.37,106.832v.133l15.675-9.054,7.316-4.222L56.494,88.86Z" transform="translate(-38.367 -71.447)" fill="url(#linear-gradient-3)"/>
        <path id="Path_1403" data-name="Path 1403" d="M100.367,73.65,95.5,78.475l4.867,4.828,8.363-4.828Z" transform="translate(-77.373 -61.062)" fill="url(#linear-gradient-4)"/>
      </g>
    </g>
    <path id="Path_1405" data-name="Path 1405" d="M497.917,507.882a4.476,4.476,0,0,1-1.865-.378,3.509,3.509,0,0,1-1.415-1.158h-.114a14.076,14.076,0,0,1,.114,1.735v4.3H493.05V497.239h1.285l.222,1.431h.076a3.639,3.639,0,0,1,1.421-1.24,4.325,4.325,0,0,1,1.859-.381,3.869,3.869,0,0,1,3.211,1.421,7.573,7.573,0,0,1-.019,7.988A3.88,3.88,0,0,1,497.917,507.882Zm-.228-9.489a2.808,2.808,0,0,0-2.319.885,4.576,4.576,0,0,0-.733,2.823v.352a5.2,5.2,0,0,0,.733,3.153,2.785,2.785,0,0,0,2.357.952,2.455,2.455,0,0,0,2.122-1.094,5.251,5.251,0,0,0,.768-3.026,5.011,5.011,0,0,0-.768-3A2.538,2.538,0,0,0,497.688,498.393Z" transform="translate(808.365 -8543.665)" fill="#f9f9f9"/>
    <path id="Path_1406" data-name="Path 1406" d="M530.206,498.661H528.62V483.82h1.586Z" transform="translate(784.079 -8534.634)" fill="#f9f9f9"/>
    <path id="Path_1407" data-name="Path 1407" d="M546.8,507.734l-.317-1.488h-.076a4.366,4.366,0,0,1-1.558,1.329,4.724,4.724,0,0,1-1.942.349,3.5,3.5,0,0,1-2.436-.8,2.92,2.92,0,0,1-.882-2.281q0-3.172,5.076-3.318l1.773-.057v-.65a2.633,2.633,0,0,0-.53-1.815,2.181,2.181,0,0,0-1.691-.587,6.9,6.9,0,0,0-2.957.8L540.773,498a7.523,7.523,0,0,1,1.694-.657,7.356,7.356,0,0,1,1.846-.238,3.985,3.985,0,0,1,2.77.828,3.46,3.46,0,0,1,.9,2.662v7.135Zm-3.591-1.117a3.214,3.214,0,0,0,2.322-.809,3,3,0,0,0,.844-2.271v-.952l-1.586.063a5.72,5.72,0,0,0-2.722.59,1.764,1.764,0,0,0-.834,1.615,1.625,1.625,0,0,0,.52,1.307,2.158,2.158,0,0,0,1.456.457Z" transform="translate(776.589 -8543.708)" fill="#f9f9f9"/>
    <path id="Path_1408" data-name="Path 1408" d="M568.91,497.65h1.7l2.291,5.961a22.787,22.787,0,0,1,.933,2.947h.076c.086-.317.257-.879.52-1.666s1.129-3.2,2.589-7.243h1.7l-4.492,11.9a5.924,5.924,0,0,1-1.561,2.5,3.306,3.306,0,0,1-2.189.739,6.383,6.383,0,0,1-1.431-.162v-1.269a5.54,5.54,0,0,0,1.174.114,2.412,2.412,0,0,0,2.325-1.831l.584-1.488Z" transform="translate(756.571 -8544.076)" fill="#f9f9f9"/>
    <path id="Path_1409" data-name="Path 1409" d="M398.386,499.024a3.562,3.562,0,0,1-.286,6.056,1.536,1.536,0,0,0-.612,1.072,1.2,1.2,0,0,0,.568.952l.79.612c.952.809,1.834,1.555,1.834,3.061,0,2.056-1.989,4.124-5.748,4.124-3.172,0-4.7-1.51-4.7-3.128a3.148,3.148,0,0,1,1.685-2.668,9.237,9.237,0,0,1,4.175-1.006,2.241,2.241,0,0,1-.657-1.485,1.986,1.986,0,0,1,.219-.853c-.241.022-.479.041-.7.041a3.453,3.453,0,0,1-3.626-3.429,3.937,3.937,0,0,1,1.4-2.931,5.956,5.956,0,0,1,3.915-1.2h4.5l-1.4.787Zm-1.554,9.708a3.464,3.464,0,0,0-.5-.022,8.715,8.715,0,0,0-2.3.352,2.456,2.456,0,0,0-1.878,2.252c0,1.555,1.507,2.668,3.848,2.668,2.1,0,3.214-1.009,3.214-2.363,0-1.117-.723-1.716-2.4-2.887Zm.634-4.153a2.221,2.221,0,0,0,.546-1.586c0-1.586-.952-4.023-2.754-4.023a2.04,2.04,0,0,0-1.529.723,2.538,2.538,0,0,0-.482,1.618c0,1.466.853,3.893,2.735,3.893a2.221,2.221,0,0,0,1.472-.625Z" transform="translate(878.566 -8544.479)" fill="#f9f9f9"/>
    <path id="Path_1410" data-name="Path 1410" d="M361.086,507.725a5.152,5.152,0,0,1-5.327-5.142,5.413,5.413,0,0,1,5.656-5.3,5.1,5.1,0,0,1,5.206,5.142A5.325,5.325,0,0,1,361.086,507.725Zm2.728-1.767a3.965,3.965,0,0,0,.657-2.424c0-1.922-.917-5.59-3.626-5.59a3.036,3.036,0,0,0-1.964.746,3.3,3.3,0,0,0-1,2.662c0,2.16,1.069,5.71,3.712,5.71A2.785,2.785,0,0,0,363.815,505.958Z" transform="translate(902.101 -8543.821)" fill="#f9f9f9"/>
    <path id="Path_1411" data-name="Path 1411" d="M323.79,507.7a5.152,5.152,0,0,1-5.33-5.152,5.415,5.415,0,0,1,5.656-5.3,5.1,5.1,0,0,1,5.215,5.152A5.332,5.332,0,0,1,323.79,507.7Zm2.728-1.767a3.962,3.962,0,0,0,.654-2.424c0-1.922-.917-5.59-3.623-5.59a3.036,3.036,0,0,0-1.964.746,3.292,3.292,0,0,0-1.006,2.662c0,2.16,1.069,5.71,3.712,5.71a2.8,2.8,0,0,0,2.227-1.1Z" transform="translate(927.568 -8543.801)" fill="#f9f9f9"/>
    <path id="Path_1412" data-name="Path 1412" d="M280.663,496.733l-3.141.723a23.027,23.027,0,0,1-3.62.374c-6.056,0-8.362-4.457-8.362-7.947,0-4.257,3.271-8.2,8.867-8.2a12.657,12.657,0,0,1,3.36.46,8.565,8.565,0,0,1,2.9,1.361l-1.824,1.732-.768.174.549-.879a6.27,6.27,0,0,0-4.7-2.062c-3.467,0-6.078,2.636-6.078,6.475a7.762,7.762,0,0,0,7.766,8.01,6.545,6.545,0,0,0,2.789-.549v-3.518l-3.312.174,1.754-.952H281.5l-.571.549a.5.5,0,0,0-.219.349c-.025.2-.044.838-.044,1.056Z" transform="translate(963.699 -8533.173)" fill="#f9f9f9"/>
    <path id="Path_1413" data-name="Path 1413" d="M427.743,495.044c-.723-.067-.876-.2-.876-1.053V481.428c.089-.768.317-.9.99-1.3h-3.141l-1.646.793h1.678v13.549c0,.438-.089.5-.593,1.161h3.883l.812-.479C428.492,495.107,428.124,495.088,427.743,495.044Z" transform="translate(856.144 -8532.114)" fill="#f9f9f9"/>
    <path id="Path_1414" data-name="Path 1414" d="M448.883,506.945c-.238.133-.479.286-.717.393a5.077,5.077,0,0,1-2.116.416,4.661,4.661,0,0,1-2.9-.85,5.647,5.647,0,0,1-2.221-4.6,4.94,4.94,0,0,1,4.99-5.035,4.226,4.226,0,0,1,2.246.612,3.591,3.591,0,0,1,1.523,2.154l-5.12,2.072-1.678.133c.546,2.766,2.421,4.378,4.492,4.378a5.625,5.625,0,0,0,2.659-.761Zm-2.062-6.494c.412-.152.635-.282.635-.587a2.162,2.162,0,0,0-2.157-1.875c-.872,0-2.506.676-2.506,3.03,0,.368.041.761.063,1.155Z" transform="translate(843.95 -8543.816)" fill="#f9f9f9"/>
    <path id="Path_1415" data-name="Path 1415" d="M471.163,497.419v1.437h-.187v-1.437H470.5v-.149h1.126v.149Z" transform="translate(823.761 -8543.817)" fill="#f9f9f9"/>
    <path id="Path_1416" data-name="Path 1416" d="M476.2,498.856v-1.45h0l-.444,1.45h-.136l-.447-1.45h0v1.45H475V497.27h.27l.406,1.285h0l.4-1.285h.276v1.586Z" transform="translate(820.689 -8543.817)" fill="#f9f9f9"/>
    <path id="Path_1417" data-name="Path 1417" d="M269.947,458.655h-1.088a7.276,7.276,0,0,0-.317-1.269h-1.586a6.454,6.454,0,0,0-.317,1.269H265.61c0-.086.266-.815.8-2.179a17.343,17.343,0,0,0,.8-2.256h1.288a19.109,19.109,0,0,0,.72,2.221A19.116,19.116,0,0,1,269.947,458.655Zm-1.586-1.922c-.387-1.174-.584-1.808-.584-1.9h-.054a19.7,19.7,0,0,1-.6,1.9Z" transform="translate(963.651 -8514.424)" fill="#f9f9fa"/>
    <path id="Path_1418" data-name="Path 1418" d="M285.234,458.635h-.844a8.477,8.477,0,0,0-.952-1.475,8.311,8.311,0,0,1-1.12-1.926h-.054a11.965,11.965,0,0,1,.086,1.351q0,.841.048,2.049h-.838c.035-.7.051-1.475.051-2.319s0-1.535-.051-2.116h1.012a6.4,6.4,0,0,0,.841,1.44,8.419,8.419,0,0,1,1.031,1.818h.051a13.071,13.071,0,0,1-.082-1.364q0-.923-.048-1.9h.853c-.032.562-.048,1.269-.048,2.116S285.189,457.937,285.234,458.635Z" transform="translate(952.761 -8514.403)" fill="#f9f9fa"/>
    <path id="Path_1419" data-name="Path 1419" d="M300.612,456.285a2.538,2.538,0,0,1-.634,1.691,2.173,2.173,0,0,1-1.738.72c-.336,0-.8,0-1.39-.041q.044-1.028.044-2.319,0-1.244-.044-2.116h1.412a2.294,2.294,0,0,1,1.783.615,2.125,2.125,0,0,1,.568,1.45Zm-.933.146a1.65,1.65,0,0,0-.381-1.1,1.447,1.447,0,0,0-1.164-.447,3.255,3.255,0,0,0-.4.032c.022.454.035.929.035,1.424,0,.542,0,1.082.032,1.615a2.347,2.347,0,0,0,.444.044,1.291,1.291,0,0,0,1.085-.454A1.767,1.767,0,0,0,299.68,456.431Z" transform="translate(942.322 -8514.424)" fill="#f9f9fa"/>
    <path id="Path_1420" data-name="Path 1420" d="M315.324,458.648h-1.009a6.814,6.814,0,0,0-.606-1.488.8.8,0,0,0-.682-.282h-.378c0,.584,0,1.174.032,1.767h-.952q.041-1.028.044-2.319,0-1.244-.044-2.116h1.618q1.567,0,1.564,1.072a1.2,1.2,0,0,1-.891,1.18v.054a1.056,1.056,0,0,1,.6.536A11.681,11.681,0,0,1,315.324,458.648Zm-1.269-3.134c0-.451-.289-.679-.872-.679a3,3,0,0,0-.565.048c.025.352.038.812.038,1.377h.317c.714.01,1.063-.244,1.063-.746Z" transform="translate(932.163 -8514.417)" fill="#f9f9fa"/>
    <path id="Path_1421" data-name="Path 1421" d="M329.13,456.179a2.44,2.44,0,0,1-.634,1.735,2.075,2.075,0,0,1-1.586.688,2,2,0,0,1-1.507-.634,2.221,2.221,0,0,1-.606-1.608,2.436,2.436,0,0,1,.634-1.732,2.069,2.069,0,0,1,1.586-.688,2.014,2.014,0,0,1,1.507.634,2.221,2.221,0,0,1,.606,1.605Zm-.952.1a1.776,1.776,0,0,0-.365-1.158,1.126,1.126,0,0,0-.9-.441,1.04,1.04,0,0,0-.844.444,1.789,1.789,0,0,0-.349,1.129,1.761,1.761,0,0,0,.368,1.155,1.12,1.12,0,0,0,.9.444,1.034,1.034,0,0,0,.844-.451,1.777,1.777,0,0,0,.362-1.139Z" transform="translate(923.243 -8514.232)" fill="#f9f9fa"/>
    <path id="Path_1422" data-name="Path 1422" d="M342.482,458.655h-.952c.032-.7.044-1.475.044-2.319s0-1.535-.044-2.116h.952c-.029.571-.044,1.269-.044,2.116S342.453,457.957,342.482,458.655Z" transform="translate(911.816 -8514.424)" fill="#f9f9fa"/>
    <path id="Path_1423" data-name="Path 1423" d="M352,456.285a2.538,2.538,0,0,1-.634,1.691,2.173,2.173,0,0,1-1.738.72c-.336,0-.8,0-1.39-.041q.041-1.028.044-2.319,0-1.244-.044-2.116h1.412a2.293,2.293,0,0,1,1.783.615A2.122,2.122,0,0,1,352,456.285Zm-.93.146a1.65,1.65,0,0,0-.381-1.1,1.45,1.45,0,0,0-1.167-.447,3.215,3.215,0,0,0-.4.032c.022.454.032.93.032,1.424,0,.542,0,1.082.035,1.615a2.346,2.346,0,0,0,.444.044,1.291,1.291,0,0,0,1.085-.454A1.767,1.767,0,0,0,351.073,456.431Z" transform="translate(907.235 -8514.424)" fill="#f9f9fa"/>
    <path id="Path_1424" data-name="Path 1424" d="M371.427,458.655h-1.091a6.98,6.98,0,0,0-.317-1.269h-1.586a6.713,6.713,0,0,0-.317,1.269H367.09c0-.086.266-.815.8-2.179a17.016,17.016,0,0,0,.793-2.256h1.291a18.391,18.391,0,0,0,.72,2.221A19.89,19.89,0,0,1,371.427,458.655Zm-1.586-1.922a18.942,18.942,0,0,1-.584-1.9H369.2c0,.089-.2.723-.6,1.9Z" transform="translate(894.365 -8514.424)" fill="#f9f9fa"/>
    <path id="Path_1425" data-name="Path 1425" d="M386.333,455.393a1.326,1.326,0,0,1-.606,1.2,2.677,2.677,0,0,1-1.482.39h-.228c0,.425,0,.99.035,1.688H383.1q.044-.98.044-2.319,0-1.228-.044-2.116h1.723a1.935,1.935,0,0,1,1.091.3A.987.987,0,0,1,386.333,455.393Zm-.879.187c0-.485-.317-.73-.952-.73a2.934,2.934,0,0,0-.511.051c.025.431.038.917.038,1.459a1.815,1.815,0,0,0,.2,0C385.038,456.382,385.454,456.106,385.454,455.58Z" transform="translate(883.434 -8514.436)" fill="#f9f9fa"/>
    <path id="Path_1426" data-name="Path 1426" d="M399.22,455.393a1.326,1.326,0,0,1-.6,1.2,2.681,2.681,0,0,1-1.485.39H396.9c0,.425,0,.99.038,1.688h-.952q.041-.98.044-2.319,0-1.228-.044-2.116h1.71a1.945,1.945,0,0,1,1.094.3A.987.987,0,0,1,399.22,455.393Zm-.879.187c0-.485-.317-.73-.952-.73a2.961,2.961,0,0,0-.511.051c.025.431.038.917.038,1.459a1.87,1.87,0,0,0,.2,0c.815.022,1.228-.254,1.228-.78Z" transform="translate(874.633 -8514.436)" fill="#f9f9fa"/>
    <path id="Path_1427" data-name="Path 1427" d="M417.91,456.179a2.44,2.44,0,0,1-.634,1.735,2.078,2.078,0,0,1-1.586.688,1.992,1.992,0,0,1-1.5-.635,2.221,2.221,0,0,1-.609-1.608,2.452,2.452,0,0,1,.634-1.732,2.081,2.081,0,0,1,1.586-.688,2.014,2.014,0,0,1,1.507.634A2.221,2.221,0,0,1,417.91,456.179Zm-.952.1a1.758,1.758,0,0,0-.365-1.158,1.117,1.117,0,0,0-.9-.441,1.044,1.044,0,0,0-.847.444,1.789,1.789,0,0,0-.346,1.129,1.761,1.761,0,0,0,.365,1.155,1.129,1.129,0,0,0,.9.444,1.034,1.034,0,0,0,.847-.451,1.776,1.776,0,0,0,.355-1.139Z" transform="translate(862.627 -8514.232)" fill="#f9f9fa"/>
    <path id="Path_1428" data-name="Path 1428" d="M433.9,458.635h-.841a8.477,8.477,0,0,0-.952-1.475,8.133,8.133,0,0,1-1.117-1.926h-.054a11.965,11.965,0,0,1,.086,1.351c0,.562,0,1.244.048,2.049h-.841c.035-.7.051-1.475.051-2.319s-.016-1.535-.051-2.116h1.012a6.392,6.392,0,0,0,.844,1.44,8.5,8.5,0,0,1,1.028,1.818h.051a13.063,13.063,0,0,1-.083-1.364q0-.923-.048-1.9h.853c-.032.562-.048,1.269-.048,2.116S433.869,457.937,433.9,458.635Z" transform="translate(851.256 -8514.403)" fill="#f9f9fa"/>
  </g>
</svg>
