<svg xmlns="http://www.w3.org/2000/svg" xmlns:xlink="http://www.w3.org/1999/xlink" width="283.789" height="92.83" viewBox="0 0 283.789 92.83">
  <defs>
    <clipPath id="clip-path">
      <path id="Path_1404" data-name="Path 1404" d="M188.9,476.177l-12.795-7.39-24.679-14.254c-1.37-.788-2.741-.311-2.741,1.343v58.064c0,1.243.977,1.776,2.169,1.11l25.251-14.581,12.795-7.385,12.3-7.1c1.443-.832,1.3-1.975.089-2.63S188.9,476.177,188.9,476.177Z" transform="translate(-148.69 -454.162)" fill="none"/>
    </clipPath>
    <linearGradient id="linear-gradient" x1="0.5" x2="0.5" y2="1" gradientUnits="objectBoundingBox">
      <stop offset="0" stop-color="#257cb0"/>
      <stop offset="0.21" stop-color="#3c8fb3"/>
      <stop offset="0.74" stop-color="#73bdba"/>
      <stop offset="1" stop-color="#89cfbd"/>
    </linearGradient>
    <linearGradient id="linear-gradient-2" y1="0.5" x2="1" y2="0.5" gradientUnits="objectBoundingBox">
      <stop offset="0" stop-color="#52c1ad"/>
      <stop offset="1" stop-color="#dee89a"/>
    </linearGradient>
    <linearGradient id="linear-gradient-3" x1="0.5" x2="0.5" y2="1" gradientUnits="objectBoundingBox">
      <stop offset="0" stop-color="#ec413d"/>
      <stop offset="0.19" stop-color="#d74352"/>
      <stop offset="0.74" stop-color="#a04888"/>
      <stop offset="1" stop-color="#8a4a9d"/>
    </linearGradient>
    <linearGradient id="linear-gradient-4" x1="0.5" x2="0.5" y2="1" gradientUnits="objectBoundingBox">
      <stop offset="0" stop-color="#f58879"/>
      <stop offset="0.62" stop-color="#fbb276"/>
      <stop offset="1" stop-color="#fec874"/>
    </linearGradient>
  </defs>
  <g id="android" transform="translate(-1180 8071)">
    <rect id="Rectangle_222" data-name="Rectangle 222" width="283.789" height="92.83" rx="8" transform="translate(1180 -8071)" fill="none"/>
    <g id="PLAY" transform="translate(1201.284 -8052.151)">
      <g id="Group_374" data-name="Group 374" clip-path="url(#clip-path)">
        <path id="Path_1400" data-name="Path 1400" d="M38.37,32.21V95.073l31.7-31.432Z" transform="translate(-38.364 -33.188)" fill="url(#linear-gradient)"/>
        <path id="Path_1401" data-name="Path 1401" d="M78.579,55.02,65.785,47.63,38.37,31.8v.227l31.7,31.432Z" transform="translate(-38.364 -33.005)" fill="url(#linear-gradient-2)"/>
        <path id="Path_1402" data-name="Path 1402" d="M38.37,120.292v.233L65.785,104.69,78.579,97.3,70.068,88.86Z" transform="translate(-38.364 -58.406)" fill="url(#linear-gradient-3)"/>
        <path id="Path_1403" data-name="Path 1403" d="M104.011,73.65,95.5,82.089l8.511,8.445,14.626-8.445Z" transform="translate(-63.797 -51.635)" fill="url(#linear-gradient-4)"/>
      </g>
    </g>
    <path id="Path_1405" data-name="Path 1405" d="M501.561,516a7.828,7.828,0,0,1-3.262-.66,6.138,6.138,0,0,1-2.475-2.025h-.2a24.615,24.615,0,0,1,.2,3.035v7.524H493.05V497.382H495.3l.388,2.5h.133a6.364,6.364,0,0,1,2.486-2.169,7.564,7.564,0,0,1,3.251-.666,6.766,6.766,0,0,1,5.615,2.486,10.9,10.9,0,0,1,1.975,6.969q0,4.511-2.009,7A6.786,6.786,0,0,1,501.561,516Zm-.4-16.6a4.911,4.911,0,0,0-4.056,1.548,8,8,0,0,0-1.282,4.938v.616q0,3.884,1.282,5.515a4.872,4.872,0,0,0,4.122,1.664,4.294,4.294,0,0,0,3.712-1.914,9.184,9.184,0,0,0,1.343-5.293,8.764,8.764,0,0,0-1.343-5.243A4.439,4.439,0,0,0,501.162,499.4Z" transform="translate(899.298 -8525.404)" fill="#f9f9f9"/>
    <path id="Path_1406" data-name="Path 1406" d="M531.394,509.775H528.62V483.82h2.774Z" transform="translate(883.463 -8519.516)" fill="#f9f9f9"/>
    <path id="Path_1407" data-name="Path 1407" d="M552.2,515.692l-.555-2.6h-.133a7.636,7.636,0,0,1-2.724,2.325,8.26,8.26,0,0,1-3.4.61,6.112,6.112,0,0,1-4.261-1.4,5.107,5.107,0,0,1-1.542-3.989q0-5.548,8.877-5.8l3.1-.1V503.6a4.605,4.605,0,0,0-.927-3.174,3.815,3.815,0,0,0-2.957-1.026,12.061,12.061,0,0,0-5.171,1.4l-.854-2.12a13.159,13.159,0,0,1,2.963-1.149,12.867,12.867,0,0,1,3.229-.416,6.969,6.969,0,0,1,4.844,1.448c1.054.971,1.576,2.519,1.576,4.655v12.478Zm-6.281-1.953a5.621,5.621,0,0,0,4.061-1.415,5.244,5.244,0,0,0,1.476-3.973v-1.664l-2.774.111a10,10,0,0,0-4.76,1.032,3.085,3.085,0,0,0-1.459,2.824,2.841,2.841,0,0,0,.91,2.286,3.773,3.773,0,0,0,2.547.8Z" transform="translate(878.58 -8525.433)" fill="#f9f9f9"/>
    <path id="Path_1408" data-name="Path 1408" d="M568.91,497.65h2.968l4.006,10.425a39.864,39.864,0,0,1,1.631,5.155h.133c.15-.555.449-1.537.91-2.913s1.975-5.593,4.527-12.667h2.974L578.2,518.468a10.363,10.363,0,0,1-2.73,4.378,5.782,5.782,0,0,1-3.828,1.293,11.158,11.158,0,0,1-2.5-.283v-2.219a9.687,9.687,0,0,0,2.053.2q2.858,0,4.067-3.2l1.021-2.6Z" transform="translate(865.528 -8525.672)" fill="#f9f9f9"/>
    <path id="Path_1409" data-name="Path 1409" d="M404.495,499.61a6.459,6.459,0,0,1,2.713,5.166c0,2.824-1.6,4.167-3.213,5.426a2.686,2.686,0,0,0-1.071,1.875,2.1,2.1,0,0,0,.993,1.664l1.382,1.071c1.664,1.415,3.207,2.719,3.207,5.354,0,3.6-3.479,7.213-10.054,7.213-5.548,0-8.223-2.641-8.223-5.471a5.505,5.505,0,0,1,2.946-4.666c2.369-1.454,5.582-1.665,7.3-1.759a3.919,3.919,0,0,1-1.148-2.6,3.474,3.474,0,0,1,.383-1.493c-.422.039-.838.072-1.226.072a6.04,6.04,0,0,1-6.342-6,6.885,6.885,0,0,1,2.447-5.127,10.417,10.417,0,0,1,6.847-2.1h7.873l-2.447,1.376Zm-2.719,16.978a6.062,6.062,0,0,0-.877-.039,15.241,15.241,0,0,0-4.017.616c-.838.305-3.285,1.221-3.285,3.939s2.635,4.666,6.73,4.666c3.667,0,5.62-1.764,5.62-4.134,0-1.953-1.265-3-4.195-5.049Zm1.11-7.263a3.884,3.884,0,0,0,.954-2.774c0-2.774-1.665-7.035-4.816-7.035a3.568,3.568,0,0,0-2.674,1.265,4.438,4.438,0,0,0-.843,2.83c0,2.563,1.492,6.808,4.783,6.808a3.883,3.883,0,0,0,2.574-1.093Z" transform="translate(945.069 -8525.936)" fill="#f9f9f9"/>
    <path id="Path_1410" data-name="Path 1410" d="M365.076,515.549a9.011,9.011,0,0,1-9.316-8.994c0-4.994,4.084-9.277,9.893-9.277a8.927,8.927,0,0,1,9.1,8.994A9.312,9.312,0,0,1,365.076,515.549Zm4.772-3.09A6.935,6.935,0,0,0,371,508.22c0-3.362-1.6-9.776-6.342-9.776a5.31,5.31,0,0,0-3.434,1.3,5.77,5.77,0,0,0-1.753,4.655c0,3.779,1.87,9.987,6.492,9.987A4.871,4.871,0,0,0,369.847,512.459Z" transform="translate(960.414 -8525.506)" fill="#f9f9f9"/>
    <path id="Path_1411" data-name="Path 1411" d="M327.781,515.536a9.01,9.01,0,0,1-9.321-9.01c0-4.994,4.089-9.277,9.893-9.277a8.927,8.927,0,0,1,9.122,9.011A9.326,9.326,0,0,1,327.781,515.536Zm4.772-3.09a6.93,6.93,0,0,0,1.143-4.239c0-3.362-1.6-9.776-6.336-9.776a5.31,5.31,0,0,0-3.435,1.3,5.757,5.757,0,0,0-1.759,4.655c0,3.779,1.87,9.987,6.492,9.987a4.888,4.888,0,0,0,3.895-1.931Z" transform="translate(977.018 -8525.492)" fill="#f9f9f9"/>
    <path id="Path_1412" data-name="Path 1412" d="M291.989,508.007l-5.493,1.265a40.268,40.268,0,0,1-6.331.655c-10.592,0-14.625-7.8-14.625-13.9,0-7.446,5.72-14.348,15.508-14.348a22.137,22.137,0,0,1,5.876.8,14.98,14.98,0,0,1,5.066,2.38l-3.19,3.029-1.343.305.96-1.537a10.966,10.966,0,0,0-8.212-3.607c-6.064,0-10.631,4.611-10.631,11.324,0,7.213,5.221,14.01,13.582,14.01a11.447,11.447,0,0,0,4.877-.96v-6.153l-5.793.305,3.068-1.664h8.14l-1,.96a.883.883,0,0,0-.383.61c-.044.35-.078,1.465-.078,1.848Z" transform="translate(1000.576 -8518.563)" fill="#f9f9f9"/>
    <path id="Path_1413" data-name="Path 1413" d="M431.243,506.213c-1.265-.116-1.531-.344-1.531-1.842V482.4c.155-1.343.555-1.576,1.731-2.269H425.95l-2.88,1.387h2.935v23.7c0,.766-.155.882-1.038,2.031h6.791l1.42-.838C432.552,506.324,431.909,506.291,431.243,506.213Z" transform="translate(930.45 -8517.873)" fill="#f9f9f9"/>
    <path id="Path_1414" data-name="Path 1414" d="M454.84,514.192c-.416.233-.838.5-1.254.688a8.878,8.878,0,0,1-3.7.727,8.151,8.151,0,0,1-5.071-1.487,9.876,9.876,0,0,1-3.884-8.045,8.64,8.64,0,0,1,8.728-8.805,7.39,7.39,0,0,1,3.928,1.071,6.281,6.281,0,0,1,2.663,3.767l-8.955,3.623-2.935.233c.954,4.838,4.233,7.657,7.857,7.657a9.837,9.837,0,0,0,4.65-1.332Zm-3.606-11.358c.721-.266,1.11-.494,1.11-1.026a3.781,3.781,0,0,0-3.773-3.279c-1.526,0-4.383,1.182-4.383,5.3,0,.644.072,1.332.111,2.02Z" transform="translate(922.499 -8525.503)" fill="#f9f9f9"/>
    <path id="Path_1415" data-name="Path 1415" d="M471.66,497.531v2.513h-.327v-2.513H470.5v-.261h1.97v.261Z" transform="translate(909.336 -8525.504)" fill="#f9f9f9"/>
    <path id="Path_1416" data-name="Path 1416" d="M477.092,500.044v-2.536h0l-.777,2.536h-.239l-.782-2.536h0v2.536H475V497.27h.472l.71,2.247h0l.694-2.247h.483v2.774Z" transform="translate(907.333 -8525.504)" fill="#f9f9f9"/>
    <path id="Path_1417" data-name="Path 1417" d="M273.195,461.977h-1.9a12.726,12.726,0,0,0-.555-2.219h-2.774a11.289,11.289,0,0,0-.555,2.219h-1.8c0-.15.466-1.426,1.393-3.812a30.329,30.329,0,0,0,1.393-3.945h2.253a33.425,33.425,0,0,0,1.259,3.884A33.425,33.425,0,0,1,273.195,461.977Zm-2.774-3.362c-.677-2.053-1.021-3.163-1.021-3.329h-.094a34.458,34.458,0,0,1-1.054,3.329Z" transform="translate(1000.545 -8506.338)" fill="#f9f9fa"/>
    <path id="Path_1418" data-name="Path 1418" d="M287.985,461.963h-1.476a14.824,14.824,0,0,0-1.665-2.58,14.536,14.536,0,0,1-1.959-3.368h-.094a20.928,20.928,0,0,1,.15,2.364q0,1.47.083,3.584H281.56c.061-1.232.089-2.58.089-4.056s0-2.685-.089-3.7h1.77a11.192,11.192,0,0,0,1.47,2.519,14.724,14.724,0,0,1,1.8,3.179h.089a22.866,22.866,0,0,1-.144-2.386q0-1.615-.083-3.329h1.493c-.056.982-.083,2.219-.083,3.7S287.907,460.743,287.985,461.963Z" transform="translate(993.445 -8506.325)" fill="#f9f9fa"/>
    <path id="Path_1419" data-name="Path 1419" d="M303.43,457.832a4.438,4.438,0,0,1-1.11,2.957,3.8,3.8,0,0,1-3.041,1.26c-.588,0-1.4,0-2.43-.072q.078-1.8.078-4.056,0-2.175-.078-3.7h2.469a4.012,4.012,0,0,1,3.118,1.076,3.717,3.717,0,0,1,.993,2.536Zm-1.631.255a2.885,2.885,0,0,0-.666-1.931,2.53,2.53,0,0,0-2.036-.782,5.7,5.7,0,0,0-.7.056c.039.793.061,1.626.061,2.491,0,.949,0,1.892.055,2.824a4.1,4.1,0,0,0,.777.078,2.258,2.258,0,0,0,1.9-.793A3.09,3.09,0,0,0,301.8,458.087Z" transform="translate(986.638 -8506.338)" fill="#f9f9fa"/>
    <path id="Path_1420" data-name="Path 1420" d="M318.016,461.972h-1.764a11.917,11.917,0,0,0-1.06-2.6,1.392,1.392,0,0,0-1.193-.494h-.66c0,1.021,0,2.053.055,3.09H311.73q.072-1.8.078-4.056,0-2.175-.078-3.7h2.83q2.741,0,2.735,1.875a2.1,2.1,0,0,1-1.559,2.064v.094a1.847,1.847,0,0,1,1.054.938A20.421,20.421,0,0,1,318.016,461.972ZM315.8,456.49c0-.788-.5-1.187-1.526-1.187a5.248,5.248,0,0,0-.988.083c.044.616.067,1.42.067,2.408h.555c1.248.017,1.859-.427,1.859-1.3Z" transform="translate(980.014 -8506.334)" fill="#f9f9fa"/>
    <path id="Path_1421" data-name="Path 1421" d="M332.377,457.856a4.267,4.267,0,0,1-1.11,3.035,3.629,3.629,0,0,1-2.774,1.2,3.5,3.5,0,0,1-2.635-1.11,3.884,3.884,0,0,1-1.06-2.813,4.261,4.261,0,0,1,1.11-3.029,3.618,3.618,0,0,1,2.774-1.2,3.523,3.523,0,0,1,2.635,1.11,3.885,3.885,0,0,1,1.06,2.807Zm-1.664.178a3.107,3.107,0,0,0-.638-2.025,1.969,1.969,0,0,0-1.576-.771,1.82,1.82,0,0,0-1.476.777,3.129,3.129,0,0,0-.61,1.975,3.08,3.08,0,0,0,.644,2.02,1.959,1.959,0,0,0,1.57.777A1.808,1.808,0,0,0,330.1,460a3.107,3.107,0,0,0,.633-1.992Z" transform="translate(974.198 -8506.214)" fill="#f9f9fa"/>
    <path id="Path_1422" data-name="Path 1422" d="M343.195,461.977H341.53c.055-1.232.078-2.58.078-4.056s0-2.685-.078-3.7h1.664c-.05,1-.078,2.219-.078,3.7S343.145,460.756,343.195,461.977Z" transform="translate(966.748 -8506.338)" fill="#f9f9fa"/>
    <path id="Path_1423" data-name="Path 1423" d="M354.82,457.832a4.439,4.439,0,0,1-1.11,2.957,3.8,3.8,0,0,1-3.041,1.26c-.588,0-1.4,0-2.43-.072q.072-1.8.078-4.056,0-2.175-.078-3.7h2.469a4.011,4.011,0,0,1,3.118,1.076A3.712,3.712,0,0,1,354.82,457.832Zm-1.626.255a2.885,2.885,0,0,0-.666-1.931,2.536,2.536,0,0,0-2.042-.782,5.618,5.618,0,0,0-.7.055c.039.793.055,1.626.055,2.491,0,.949,0,1.892.061,2.824a4.1,4.1,0,0,0,.777.078,2.258,2.258,0,0,0,1.9-.793A3.09,3.09,0,0,0,353.195,458.087Z" transform="translate(963.761 -8506.338)" fill="#f9f9fa"/>
    <path id="Path_1424" data-name="Path 1424" d="M374.675,461.977h-1.909a12.208,12.208,0,0,0-.555-2.219h-2.774a11.742,11.742,0,0,0-.555,2.219H367.09c0-.15.466-1.426,1.393-3.812a29.756,29.756,0,0,0,1.387-3.945h2.258a32.165,32.165,0,0,0,1.259,3.884A34.777,34.777,0,0,1,374.675,461.977Zm-2.774-3.362a33.135,33.135,0,0,1-1.021-3.329h-.094c0,.155-.355,1.265-1.054,3.329Z" transform="translate(955.37 -8506.338)" fill="#f9f9fa"/>
    <path id="Path_1425" data-name="Path 1425" d="M388.754,456.258a2.319,2.319,0,0,1-1.06,2.1,4.682,4.682,0,0,1-2.591.682h-.4c0,.744,0,1.731.061,2.952H383.1q.078-1.715.078-4.056,0-2.147-.078-3.7h3.013a3.385,3.385,0,0,1,1.909.516A1.726,1.726,0,0,1,388.754,456.258Zm-1.537.327c0-.849-.555-1.276-1.664-1.276a5.126,5.126,0,0,0-.893.089c.044.755.067,1.6.067,2.552a3.186,3.186,0,0,0,.344,0C386.49,457.989,387.217,457.507,387.217,456.586Z" transform="translate(948.243 -8506.346)" fill="#f9f9fa"/>
    <path id="Path_1426" data-name="Path 1426" d="M401.638,456.258a2.319,2.319,0,0,1-1.054,2.1,4.688,4.688,0,0,1-2.6.682h-.4c0,.744,0,1.731.067,2.952H395.99q.072-1.714.078-4.056,0-2.147-.078-3.7h2.991a3.4,3.4,0,0,1,1.914.516A1.725,1.725,0,0,1,401.638,456.258Zm-1.537.327c0-.849-.555-1.276-1.665-1.276a5.174,5.174,0,0,0-.893.089c.044.755.067,1.6.067,2.552a3.265,3.265,0,0,0,.344,0c1.426.039,2.147-.444,2.147-1.365Z" transform="translate(942.505 -8506.346)" fill="#f9f9fa"/>
    <path id="Path_1427" data-name="Path 1427" d="M421.157,457.857a4.266,4.266,0,0,1-1.11,3.035,3.634,3.634,0,0,1-2.774,1.2,3.485,3.485,0,0,1-2.63-1.11,3.884,3.884,0,0,1-1.065-2.813,4.289,4.289,0,0,1,1.11-3.029,3.639,3.639,0,0,1,2.774-1.2,3.523,3.523,0,0,1,2.635,1.11A3.884,3.884,0,0,1,421.157,457.857Zm-1.664.178a3.074,3.074,0,0,0-.638-2.025,1.953,1.953,0,0,0-1.57-.771,1.825,1.825,0,0,0-1.481.777,3.129,3.129,0,0,0-.6,1.975,3.079,3.079,0,0,0,.638,2.02,1.975,1.975,0,0,0,1.57.777,1.809,1.809,0,0,0,1.481-.788,3.107,3.107,0,0,0,.622-1.992Z" transform="translate(934.677 -8506.214)" fill="#f9f9fa"/>
    <path id="Path_1428" data-name="Path 1428" d="M436.649,461.963h-1.47a14.825,14.825,0,0,0-1.664-2.58,14.225,14.225,0,0,1-1.953-3.368h-.094a20.928,20.928,0,0,1,.15,2.364c0,.982,0,2.175.083,3.584h-1.47c.061-1.232.089-2.58.089-4.056s-.028-2.685-.089-3.7H432a11.177,11.177,0,0,0,1.476,2.519,14.864,14.864,0,0,1,1.8,3.179h.089a22.849,22.849,0,0,1-.144-2.386q0-1.615-.083-3.329h1.492c-.055.982-.083,2.219-.083,3.7S436.594,460.743,436.649,461.963Z" transform="translate(927.263 -8506.325)" fill="#f9f9fa"/>
  </g>
</svg>
