<svg xmlns="http://www.w3.org/2000/svg" width="165.515" height="54.141" viewBox="0 0 165.515 54.141">
  <g id="apple-bg-tran" transform="translate(-1181.164 7971.71)">
    <path id="Path_1429" data-name="Path 1429" d="M279.515,779.992a7.316,7.316,0,0,1-7.312,7.319H121.325A7.319,7.319,0,0,1,114,779.992V740.486a7.319,7.319,0,0,1,7.319-7.316H272.2a7.316,7.316,0,0,1,7.312,7.316Z" transform="translate(1067.164 -8704.88)" fill="none"/>
    <path id="Path_1430" data-name="Path 1430" d="M181.079,805.854a26.651,26.651,0,0,1-2.424,4.524c-1.586,2.4-3.807,5.393-6.542,5.393-2.443.022-3.068-1.586-6.383-1.586s-4.007,1.586-6.453,1.586c-2.747-.025-4.851-2.722-6.424-5.117-4.4-6.7-4.86-14.565-2.148-18.743a9.74,9.74,0,0,1,7.836-4.711c2.912,0,4.743,1.586,7.154,1.586,2.335,0,3.759-1.586,7.128-1.586a9.52,9.52,0,0,1,7.167,3.785A8.213,8.213,0,0,0,181.079,805.854Z" transform="translate(1043.252 -8741.769)" fill="#fff"/>
    <path id="Path_1431" data-name="Path 1431" d="M203.419,765.756a8.185,8.185,0,0,0,1.815-6.056,8.888,8.888,0,0,0-5.71,3.068,7.6,7.6,0,0,0-1.862,5.907A7.452,7.452,0,0,0,203.419,765.756Z" transform="translate(1010.104 -8722.993)" fill="#fff"/>
    <path id="Path_1432" data-name="Path 1432" d="M278.774,801.77l-6.3,18.559h2.887l1.881-5.71h6.1l1.938,5.71h2.966L281.9,801.77Zm1.5,3.052c.213.828.441,1.688.736,2.617l1.7,4.92h-4.838l1.678-4.952C279.8,806.6,280.043,805.736,280.271,804.822Z" transform="translate(958.968 -8751.717)" fill="#fff"/>
    <path id="Path_1433" data-name="Path 1433" d="M332.544,816.93a5.265,5.265,0,0,0-4.464,2.141l-.114-1.846H325.4l.016.238c.073,1.148.1,2.414.1,4.232V836h2.811v-6.678a4.923,4.923,0,0,0,3.839,1.65,5.8,5.8,0,0,0,4.254-1.808,7.67,7.67,0,0,0,1.878-5.393,7.474,7.474,0,0,0-1.631-4.93A5.346,5.346,0,0,0,332.544,816.93Zm-.7,2.325c2.5,0,3.626,2.319,3.626,4.616,0,2.963-1.431,4.806-3.731,4.806a3.4,3.4,0,0,1-3.293-2.608,3.506,3.506,0,0,1-.1-.907V822.9a4.094,4.094,0,0,1,.089-.692,1.712,1.712,0,0,1,.038-.228A3.556,3.556,0,0,1,331.843,819.255Z" transform="translate(922.829 -8762.067)" fill="#fff"/>
    <path id="Path_1434" data-name="Path 1434" d="M378.138,816.93a5.265,5.265,0,0,0-4.464,2.141l-.114-1.846H371v.238c.076,1.152.111,2.414.111,4.232V836h2.808v-6.678a4.921,4.921,0,0,0,3.835,1.65,5.8,5.8,0,0,0,4.257-1.808,7.684,7.684,0,0,0,1.878-5.393,7.474,7.474,0,0,0-1.631-4.93A5.345,5.345,0,0,0,378.138,816.93Zm-.7,2.325c2.5,0,3.62,2.319,3.62,4.616,0,2.963-1.428,4.806-3.728,4.806a3.4,3.4,0,0,1-3.309-2.607,3.506,3.506,0,0,1-.1-.908V822.9a4.121,4.121,0,0,1,.089-.695,1.337,1.337,0,0,1,.041-.225A3.55,3.55,0,0,1,377.44,819.255Z" transform="translate(891.696 -8762.067)" fill="#fff"/>
    <path id="Path_1435" data-name="Path 1435" d="M436.214,808.993c-2.62-1.015-3.461-1.815-3.461-3.29,0-1.24.987-2.494,3.191-2.494a6.373,6.373,0,0,1,3.3.828l.238.146.79-2.341-.155-.092a8.124,8.124,0,0,0-4.089-.92c-3.582,0-6.082,2.116-6.082,5.143,0,2.44,1.564,4.146,4.927,5.368,2.386.891,3.271,1.8,3.271,3.366,0,1.77-1.367,2.855-3.569,2.855a7.686,7.686,0,0,1-4.048-1.133l-.241-.155-.755,2.4.14.089a9.583,9.583,0,0,0,4.743,1.221c4.828,0,6.538-2.944,6.538-5.463C440.951,811.921,439.58,810.319,436.214,808.993Z" transform="translate(851.734 -8751.075)" fill="#fff"/>
    <path id="Path_1436" data-name="Path 1436" d="M471.2,807.78l-2.757.866v2.332H466.43v2.246h2.015V820.1a5.241,5.241,0,0,0,.974,3.563,3.6,3.6,0,0,0,2.716,1.066,6.539,6.539,0,0,0,2.17-.336l.159-.054-.133-2.249-.27.083a4.173,4.173,0,0,1-1.307.152c-1.088,0-1.551-.688-1.551-2.306v-6.792h3.385v-2.246H471.2Z" transform="translate(826.54 -8755.82)" fill="#fff"/>
    <path id="Path_1437" data-name="Path 1437" d="M499.742,816.925c-3.931,0-6.662,2.935-6.662,7.128,0,4.073,2.652,6.916,6.456,6.916h.025c3.217,0,6.662-2.24,6.662-7.157a7.093,7.093,0,0,0-1.789-4.965A6.256,6.256,0,0,0,499.742,816.925Zm-.083,2.221c2.538,0,3.677,2.462,3.677,4.759,0,2.814-1.57,4.857-3.728,4.857h-.029c-2.129,0-3.677-2.008-3.677-4.778.006-2.414,1.164-4.841,3.756-4.841Z" transform="translate(808.344 -8762.062)" fill="#fff"/>
    <path id="Path_1438" data-name="Path 1438" d="M546.582,817.06l-.168-.041a2.633,2.633,0,0,0-.7-.089,4,4,0,0,0-3.521,2.262l-.082-1.967H539.59l.019.238c.073,1.11.1,2.36.1,4.042l-.025,9.175H542.5v-7.157a7.228,7.228,0,0,1,.076-1.088,3.105,3.105,0,0,1,2.957-2.83,6.7,6.7,0,0,1,.752.048l.317.032Z" transform="translate(776.589 -8762.067)" fill="#fff"/>
    <path id="Path_1439" data-name="Path 1439" d="M567.875,816.85c-3.74,0-6.345,2.985-6.345,7.262,0,4.124,2.6,6.783,6.621,6.783a10.785,10.785,0,0,0,4.441-.853l.168-.076-.539-2.094-.235.1a8.709,8.709,0,0,1-3.518.635,3.9,3.9,0,0,1-4.2-4.07l9.064.029.035-.181a6.216,6.216,0,0,0,.086-1.171C573.446,820.27,571.986,816.85,567.875,816.85Zm-.187,2.135a2.783,2.783,0,0,1,2.062.787,3.885,3.885,0,0,1,.952,2.614h-6.389c.26-1.621,1.275-3.4,3.375-3.4Z" transform="translate(761.61 -8762.013)" fill="#fff"/>
    <path id="Path_1440" data-name="Path 1440" d="M272.47,761.411a20.354,20.354,0,0,1,2.693-.181,6.01,6.01,0,0,1,3.953,1.082,3.933,3.933,0,0,1,1.389,3.172A4.441,4.441,0,0,1,279.1,768.9a6.512,6.512,0,0,1-4.33,1.269,19.284,19.284,0,0,1-2.3-.1Zm1.269,7.782a9.364,9.364,0,0,0,1.269.051c2.693,0,4.156-1.355,4.156-3.728,0-2.1-1.288-3.388-3.953-3.388a8.113,8.113,0,0,0-1.478.117Z" transform="translate(958.968 -8724.038)" fill="#fff"/>
    <path id="Path_1441" data-name="Path 1441" d="M304.77,775.382a3.165,3.165,0,0,1-3.36-3.245,3.252,3.252,0,0,1,3.474-3.347,3.139,3.139,0,0,1,3.375,3.23,3.27,3.27,0,0,1-3.49,3.363Zm.041-.86a2.244,2.244,0,0,0,2.132-2.462,2.143,2.143,0,1,0-2.145,2.462Z" transform="translate(939.209 -8729.199)" fill="#fff"/>
    <path id="Path_1442" data-name="Path 1442" d="M326.618,769.226l.952,3.191c.187.7.378,1.37.508,2.021h.041c.162-.635.393-1.317.634-2.008l1.142-3.2h1.041l1.088,3.153c.26.742.463,1.421.634,2.059h.044a17.7,17.7,0,0,1,.533-2.046l1-3.172H335.5l-2.262,6.307h-1.164l-1.069-3.011a20.464,20.464,0,0,1-.634-2.084h-.029a17.252,17.252,0,0,1-.634,2.1l-1.129,3h-1.136l-2.116-6.307Z" transform="translate(922.877 -8729.493)" fill="#fff"/>
    <path id="Path_1443" data-name="Path 1443" d="M361.27,770.634a14.822,14.822,0,0,0-.06-1.707h1.129l.073,1.028h.029a2.656,2.656,0,0,1,2.319-1.171,2.4,2.4,0,0,1,2.474,2.684v3.766h-1.269V771.6c0-1.018-.422-1.878-1.624-1.878a1.815,1.815,0,0,0-1.707,1.174,1.5,1.5,0,0,0-.089.536v3.807h-1.269Z" transform="translate(898.38 -8729.193)" fill="#fff"/>
    <path id="Path_1444" data-name="Path 1444" d="M386.73,760H388v9.254H386.73Z" transform="translate(880.956 -8723.198)" fill="#fff"/>
    <path id="Path_1445" data-name="Path 1445" d="M399.18,775.382a3.165,3.165,0,0,1-3.36-3.245,3.252,3.252,0,0,1,3.474-3.347,3.141,3.141,0,0,1,3.375,3.23A3.27,3.27,0,0,1,399.18,775.382Zm.041-.86a2.244,2.244,0,0,0,2.129-2.462,2.142,2.142,0,1,0-2.141,2.462Z" transform="translate(874.75 -8729.199)" fill="#fff"/>
    <path id="Path_1446" data-name="Path 1446" d="M426.188,773.763a9.478,9.478,0,0,0,.1,1.51h-1.145l-.114-.793h-.044a2.69,2.69,0,0,1-2.141.952,1.91,1.91,0,0,1-2.145-1.811c0-1.523,1.507-2.357,4.213-2.344v-.13c0-.523-.159-1.472-1.586-1.459a3.664,3.664,0,0,0-1.837.466l-.292-.768a4.927,4.927,0,0,1,2.319-.546c2.157,0,2.678,1.313,2.678,2.579Zm-1.231-1.7c-1.393-.025-2.969.2-2.969,1.421a1.065,1.065,0,0,0,1.186,1.094,1.767,1.767,0,0,0,1.723-1.056,1.038,1.038,0,0,0,.06-.365Z" transform="translate(857.763 -8729.232)" fill="#fff"/>
    <path id="Path_1447" data-name="Path 1447" d="M449.44,760v7.614c0,.562.016,1.2.057,1.631h-1.142l-.06-1.094h-.029a2.619,2.619,0,0,1-2.373,1.237,3.005,3.005,0,0,1-3.014-3.2,3.144,3.144,0,0,1,3.141-3.388,2.411,2.411,0,0,1,2.116.952h.029V760Zm-1.269,5.514a1.885,1.885,0,0,0-.057-.495,1.843,1.843,0,0,0-1.84-1.317,2.16,2.16,0,0,0-2.1,2.424,2.091,2.091,0,0,0,2.072,2.344,1.9,1.9,0,0,0,1.869-1.367,1.751,1.751,0,0,0,.057-.495Z" transform="translate(842.619 -8723.198)" fill="#fff"/>
    <path id="Path_1448" data-name="Path 1448" d="M481.66,775.382a3.166,3.166,0,0,1-3.36-3.245,3.258,3.258,0,0,1,3.49-3.347,3.139,3.139,0,0,1,3.375,3.23,3.27,3.27,0,0,1-3.49,3.363Zm.044-.86a2.242,2.242,0,0,0,2.129-2.462,2.142,2.142,0,1,0-2.141,2.462Z" transform="translate(818.436 -8729.199)" fill="#fff"/>
    <path id="Path_1449" data-name="Path 1449" d="M504.87,770.634c0-.666-.016-1.187-.06-1.707h1.129l.073,1.028h.029a2.655,2.655,0,0,1,2.319-1.171,2.406,2.406,0,0,1,2.474,2.684v3.766h-1.269V771.6c0-1.018-.419-1.878-1.621-1.878a1.827,1.827,0,0,0-1.71,1.174,1.586,1.586,0,0,0-.086.536v3.807H504.88Z" transform="translate(800.336 -8729.193)" fill="#fff"/>
    <path id="Path_1450" data-name="Path 1450" d="M539.795,764.47v1.513h1.824v.876h-1.824v3.4c0,.784.244,1.225.952,1.225a2.708,2.708,0,0,0,.739-.076l.057.872a3.786,3.786,0,0,1-1.129.155,1.925,1.925,0,0,1-1.377-.482,2.3,2.3,0,0,1-.492-1.656v-3.439H537.46v-.872h1.085v-1.161Z" transform="translate(778.044 -8726.25)" fill="#fff"/>
    <path id="Path_1451" data-name="Path 1451" d="M555.09,760h1.269v3.937h.032a2.163,2.163,0,0,1,.91-.809,2.719,2.719,0,0,1,1.3-.317,2.393,2.393,0,0,1,2.449,2.7v3.753h-1.269v-3.645c0-1.031-.419-1.878-1.621-1.878a1.834,1.834,0,0,0-1.71,1.148,1.269,1.269,0,0,0-.089.549v3.807H555.1Z" transform="translate(766.007 -8723.198)" fill="#fff"/>
    <path id="Path_1452" data-name="Path 1452" d="M580.061,772.255a2.135,2.135,0,0,0,2.389,2.189,5.344,5.344,0,0,0,1.942-.317l.232.809a6.307,6.307,0,0,1-2.348.4c-2.145,0-3.445-1.291-3.445-3.172a3.236,3.236,0,0,1,3.3-3.417,2.762,2.762,0,0,1,2.884,2.973,2.686,2.686,0,0,1-.044.549Zm3.721-.822a1.7,1.7,0,0,0-1.754-1.865,1.986,1.986,0,0,0-1.954,1.865Z" transform="translate(749.798 -8729.172)" fill="#fff"/>
  </g>
</svg>
