<svg xmlns="http://www.w3.org/2000/svg" width="282.702" height="92.473" viewBox="0 0 282.702 92.473">
  <g id="apple" transform="translate(-1181.164 7971.71)">
    <path id="Path_1429" data-name="Path 1429" d="M396.7,813.142a12.5,12.5,0,0,1-12.49,12.5h-257.7A12.5,12.5,0,0,1,114,813.142V745.665a12.5,12.5,0,0,1,12.5-12.5H384.212a12.5,12.5,0,0,1,12.49,12.5Z" transform="translate(1067.164 -8704.88)" fill="none"/>
    <path id="Path_1430" data-name="Path 1430" d="M203.776,819.061a45.522,45.522,0,0,1-4.14,7.727c-2.709,4.091-6.5,9.211-11.173,9.211-4.172.038-5.24-2.709-10.9-2.709S170.717,836,166.54,836c-4.692-.043-8.285-4.649-10.973-8.74-7.516-11.444-8.3-24.877-3.668-32.013,3.294-5.077,8.5-8.047,13.384-8.047,4.974,0,8.1,2.709,12.219,2.709,3.988,0,6.421-2.709,12.176-2.709,4.335,0,8.957,2.368,12.241,6.464C191.162,799.554,192.9,814.943,203.776,819.061Z" transform="translate(1051.119 -8729.632)" fill="#fff"/>
    <path id="Path_1431" data-name="Path 1431" d="M207.558,770.044a13.98,13.98,0,0,0,3.1-10.344,15.18,15.18,0,0,0-9.753,5.24c-2.113,2.574-3.863,6.388-3.181,10.089C201.462,775.148,205.315,772.921,207.558,770.044Z" transform="translate(1028.875 -8717.034)" fill="#fff"/>
    <path id="Path_1432" data-name="Path 1432" d="M283.237,801.77l-10.767,31.7H277.4l3.213-9.753h10.425l3.311,9.753h5.066l-10.837-31.7Zm2.558,5.213c.363,1.414.753,2.883,1.257,4.47l2.9,8.4h-8.263l2.866-8.458C284.992,810.023,285.4,808.543,285.794,806.983Z" transform="translate(994.562 -8736.308)" fill="#fff"/>
    <path id="Path_1433" data-name="Path 1433" d="M337.6,816.93a8.993,8.993,0,0,0-7.624,3.658l-.2-3.154H325.4l.027.406c.125,1.962.179,4.123.179,7.228v24.438h4.8V838.1a8.41,8.41,0,0,0,6.556,2.818,9.9,9.9,0,0,0,7.266-3.089,13.1,13.1,0,0,0,3.208-9.212,12.765,12.765,0,0,0-2.785-8.42A9.13,9.13,0,0,0,337.6,816.93Zm-1.2,3.972c4.275,0,6.193,3.961,6.193,7.884,0,5.061-2.444,8.209-6.372,8.209a5.814,5.814,0,0,1-5.624-4.454,5.992,5.992,0,0,1-.168-1.55v-3.858a6.985,6.985,0,0,1,.152-1.181,2.936,2.936,0,0,1,.065-.39A6.074,6.074,0,0,1,336.405,820.9Z" transform="translate(970.313 -8743.254)" fill="#fff"/>
    <path id="Path_1434" data-name="Path 1434" d="M383.192,816.93a8.993,8.993,0,0,0-7.624,3.658l-.2-3.154H371v.406c.13,1.967.19,4.124.19,7.228v24.438h4.8V838.1a8.4,8.4,0,0,0,6.551,2.818,9.911,9.911,0,0,0,7.272-3.089,13.124,13.124,0,0,0,3.208-9.211,12.765,12.765,0,0,0-2.785-8.42A9.13,9.13,0,0,0,383.192,816.93ZM382,820.9c4.27,0,6.183,3.961,6.183,7.884,0,5.061-2.438,8.209-6.367,8.209a5.814,5.814,0,0,1-5.651-4.453,5.983,5.983,0,0,1-.168-1.551v-3.858a7.044,7.044,0,0,1,.152-1.187,2.285,2.285,0,0,1,.07-.385A6.063,6.063,0,0,1,382,820.9Z" transform="translate(949.421 -8743.254)" fill="#fff"/>
    <path id="Path_1435" data-name="Path 1435" d="M440.947,814.772c-4.476-1.734-5.912-3.1-5.912-5.619,0-2.119,1.685-4.259,5.451-4.259a10.885,10.885,0,0,1,5.635,1.414l.406.249,1.349-4-.266-.157a13.876,13.876,0,0,0-6.984-1.571c-6.118,0-10.387,3.614-10.387,8.784,0,4.167,2.671,7.082,8.415,9.168,4.075,1.522,5.587,3.078,5.587,5.749,0,3.024-2.335,4.877-6.1,4.877a13.128,13.128,0,0,1-6.914-1.934l-.412-.266-1.29,4.1.238.152a16.368,16.368,0,0,0,8.1,2.086c8.247,0,11.168-5.028,11.168-9.331C449.037,819.773,446.7,817.037,440.947,814.772Z" transform="translate(922.606 -8735.878)" fill="#fff"/>
    <path id="Path_1436" data-name="Path 1436" d="M474.58,807.78l-4.709,1.479v3.983H466.43v3.836h3.441V828.82c0,2.839.542,4.828,1.664,6.085a6.145,6.145,0,0,0,4.638,1.821,11.171,11.171,0,0,0,3.706-.574l.271-.092-.228-3.842-.461.141a7.129,7.129,0,0,1-2.232.26c-1.859,0-2.65-1.176-2.65-3.939v-11.6h5.782v-3.836H474.58Z" transform="translate(905.7 -8739.063)" fill="#fff"/>
    <path id="Path_1437" data-name="Path 1437" d="M504.459,816.926c-6.714,0-11.379,5.012-11.379,12.175,0,6.958,4.53,11.813,11.027,11.813h.043c5.494,0,11.379-3.825,11.379-12.224a12.114,12.114,0,0,0-3.056-8.48A10.685,10.685,0,0,0,504.459,816.926Zm-.141,3.793c4.335,0,6.28,4.2,6.28,8.128,0,4.806-2.682,8.3-6.367,8.3h-.049c-3.636,0-6.28-3.43-6.28-8.16.011-4.124,1.989-8.269,6.415-8.269Z" transform="translate(893.491 -8743.249)" fill="#fff"/>
    <path id="Path_1438" data-name="Path 1438" d="M551.533,817.152l-.287-.07a4.5,4.5,0,0,0-1.192-.152,6.839,6.839,0,0,0-6.015,3.863l-.141-3.359H539.59l.033.406c.125,1.9.179,4.031.179,6.9l-.043,15.67h4.8V828.19a12.337,12.337,0,0,1,.13-1.859c.542-2.937,2.525-4.833,5.05-4.833a11.435,11.435,0,0,1,1.284.081l.542.054Z" transform="translate(872.182 -8743.254)" fill="#fff"/>
    <path id="Path_1439" data-name="Path 1439" d="M572.367,816.85c-6.388,0-10.837,5.1-10.837,12.4,0,7.044,4.438,11.585,11.309,11.585a18.422,18.422,0,0,0,7.586-1.458l.287-.13-.921-3.576-.4.163a14.876,14.876,0,0,1-6.009,1.084c-2.081,0-6.887-.688-7.18-6.952l15.481.049.06-.309a10.615,10.615,0,0,0,.146-2C581.882,822.691,579.39,816.85,572.367,816.85Zm-.32,3.647a4.753,4.753,0,0,1,3.522,1.344,6.636,6.636,0,0,1,1.626,4.465H566.282c.444-2.769,2.178-5.809,5.765-5.809Z" transform="translate(862.131 -8743.217)" fill="#fff"/>
    <path id="Path_1440" data-name="Path 1440" d="M272.47,761.539a34.783,34.783,0,0,1,4.6-.309c3.089,0,5.294.623,6.752,1.848A6.718,6.718,0,0,1,286.2,768.5a7.586,7.586,0,0,1-2.4,5.83c-1.582,1.4-4.156,2.167-7.4,2.167a32.961,32.961,0,0,1-3.928-.179Zm2.167,13.292a15.986,15.986,0,0,0,2.167.087c4.6,0,7.1-2.314,7.1-6.367,0-3.582-2.2-5.787-6.751-5.787a13.857,13.857,0,0,0-2.525.2Z" transform="translate(994.562 -8717.735)" fill="#fff"/>
    <path id="Path_1441" data-name="Path 1441" d="M307.148,780.05a5.405,5.405,0,0,1-5.738-5.543c0-3.6,2.644-5.717,5.933-5.717,3.441,0,5.765,2.243,5.765,5.516,0,4.01-3.094,5.744-5.96,5.744Zm.07-1.468c2.081,0,3.641-1.756,3.641-4.2,0-1.826-1.019-4.118-3.587-4.118s-3.663,2.135-3.663,4.183c0,2.357,1.485,4.14,3.587,4.14Z" transform="translate(981.303 -8721.198)" fill="#fff"/>
    <path id="Path_1442" data-name="Path 1442" d="M327.53,769.231l1.626,5.451c.32,1.2.645,2.341.867,3.452h.07c.276-1.084.672-2.249,1.084-3.43l1.951-5.473H334.9l1.859,5.386c.444,1.268.791,2.427,1.084,3.517h.076a30.243,30.243,0,0,1,.91-3.495l1.707-5.419h2.167l-3.863,10.772h-1.989l-1.826-5.142a34.98,34.98,0,0,1-1.084-3.56H333.9a29.469,29.469,0,0,1-1.084,3.582l-1.929,5.12h-1.94L325.33,769.22Z" transform="translate(970.345 -8721.396)" fill="#fff"/>
    <path id="Path_1443" data-name="Path 1443" d="M361.313,771.945a25.324,25.324,0,0,0-.1-2.915h1.929l.125,1.755h.049a4.536,4.536,0,0,1,3.961-2c1.653,0,4.226.889,4.226,4.584V779.8h-2.167v-6.21c0-1.739-.721-3.208-2.774-3.208a3.1,3.1,0,0,0-2.915,2,2.559,2.559,0,0,0-.152.916v6.5h-2.167Z" transform="translate(953.906 -8721.194)" fill="#fff"/>
    <path id="Path_1444" data-name="Path 1444" d="M386.73,760H388.9v15.806H386.73Z" transform="translate(942.214 -8717.172)" fill="#fff"/>
    <path id="Path_1445" data-name="Path 1445" d="M401.558,780.05a5.405,5.405,0,0,1-5.738-5.543c0-3.6,2.644-5.717,5.933-5.717,3.435,0,5.765,2.243,5.765,5.516C407.519,778.316,404.425,780.05,401.558,780.05Zm.07-1.468c2.075,0,3.636-1.756,3.636-4.2,0-1.826-1.013-4.118-3.587-4.118s-3.657,2.135-3.657,4.183c0,2.357,1.479,4.14,3.587,4.14Z" transform="translate(938.05 -8721.198)" fill="#fff"/>
    <path id="Path_1446" data-name="Path 1446" d="M430.074,777.249a16.18,16.18,0,0,0,.173,2.579h-1.956l-.2-1.355h-.076a4.6,4.6,0,0,1-3.657,1.626c-2.428,0-3.663-1.533-3.663-3.094,0-2.6,2.574-4.026,7.2-4v-.222c0-.894-.271-2.514-2.709-2.493a6.258,6.258,0,0,0-3.137.8l-.5-1.311a8.415,8.415,0,0,1,3.961-.932c3.685,0,4.573,2.243,4.573,4.405Zm-2.1-2.9c-2.379-.043-5.072.336-5.072,2.428a1.818,1.818,0,0,0,2.026,1.869,3.018,3.018,0,0,0,2.942-1.8,1.771,1.771,0,0,0,.1-.623Z" transform="translate(926.651 -8721.22)" fill="#fff"/>
    <path id="Path_1447" data-name="Path 1447" d="M454.085,760v13c0,.959.027,2.048.1,2.785h-1.951l-.1-1.87h-.049a4.473,4.473,0,0,1-4.053,2.113,5.133,5.133,0,0,1-5.148-5.473,5.369,5.369,0,0,1,5.364-5.787,4.119,4.119,0,0,1,3.614,1.626h.049V760Zm-2.167,9.417a3.221,3.221,0,0,0-.1-.845,3.148,3.148,0,0,0-3.143-2.249c-2.249,0-3.587,1.783-3.587,4.14,0,2.205,1.214,4,3.538,4a3.251,3.251,0,0,0,3.192-2.335,2.991,2.991,0,0,0,.1-.845Z" transform="translate(916.49 -8717.172)" fill="#fff"/>
    <path id="Path_1448" data-name="Path 1448" d="M484.038,780.05a5.408,5.408,0,0,1-5.738-5.543c0-3.6,2.65-5.717,5.96-5.717,3.441,0,5.765,2.243,5.765,5.516,0,4.01-3.094,5.744-5.96,5.744Zm.076-1.468c2.081,0,3.636-1.756,3.636-4.2,0-1.826-1.013-4.118-3.587-4.118s-3.658,2.135-3.658,4.183c0,2.357,1.485,4.14,3.587,4.14Z" transform="translate(900.262 -8721.198)" fill="#fff"/>
    <path id="Path_1449" data-name="Path 1449" d="M504.913,771.945c0-1.138-.027-2.027-.1-2.915h1.929l.125,1.755h.049a4.536,4.536,0,0,1,3.961-2c1.626,0,4.226.889,4.226,4.584V779.8h-2.167v-6.21c0-1.739-.715-3.208-2.769-3.208a3.121,3.121,0,0,0-2.92,2,2.71,2.71,0,0,0-.146.916v6.5h-2.167Z" transform="translate(888.117 -8721.194)" fill="#fff"/>
    <path id="Path_1450" data-name="Path 1450" d="M541.448,764.47v2.585h3.116v1.5h-3.116v5.809c0,1.338.417,2.092,1.626,2.092a4.616,4.616,0,0,0,1.263-.13l.1,1.49a6.464,6.464,0,0,1-1.929.266,3.289,3.289,0,0,1-2.352-.824,3.92,3.92,0,0,1-.84-2.828V768.55H537.46v-1.49h1.853v-1.983Z" transform="translate(873.158 -8719.22)" fill="#fff"/>
    <path id="Path_1451" data-name="Path 1451" d="M555.09,760h2.167v6.725h.054a3.7,3.7,0,0,1,1.555-1.382,4.644,4.644,0,0,1,2.227-.542c1.626,0,4.183.889,4.183,4.606v6.41h-2.167v-6.226c0-1.761-.715-3.208-2.769-3.208a3.132,3.132,0,0,0-2.921,1.962,2.164,2.164,0,0,0-.152.937v6.5H555.1Z" transform="translate(865.081 -8717.172)" fill="#fff"/>
    <path id="Path_1452" data-name="Path 1452" d="M580.932,774.737c.049,2.644,1.9,3.739,4.08,3.739a9.129,9.129,0,0,0,3.316-.542l.4,1.382a10.773,10.773,0,0,1-4.01.688c-3.663,0-5.885-2.205-5.885-5.419a5.527,5.527,0,0,1,5.635-5.836c3.912,0,4.925,3.094,4.925,5.077a4.58,4.58,0,0,1-.076.937Zm6.356-1.4a2.906,2.906,0,0,0-3-3.186,3.392,3.392,0,0,0-3.338,3.186Z" transform="translate(854.205 -8721.18)" fill="#fff"/>
  </g>
</svg>
