<svg xmlns="http://www.w3.org/2000/svg" width="37.037" height="50.883" viewBox="0 0 37.037 50.883">
  <g id="icon-08" transform="translate(0 0)">
    <path id="Path_1455" data-name="Path 1455" d="M74.353,335.714q-.564.462-1.169.872a10.144,10.144,0,0,1,.366,2.841c0,5.374-4.763,9.746-10.617,9.746s-10.617-4.372-10.617-9.746a10.052,10.052,0,0,1,.369-2.838q-.606-.412-1.172-.874a15.884,15.884,0,0,1-1.272-1.163,12.282,12.282,0,0,0-.926,4.875c0,7.029,6.109,12.746,13.617,12.746s13.617-5.718,13.617-12.746a12.309,12.309,0,0,0-.91-4.89,15.853,15.853,0,0,1-1.287,1.178Zm0,0" transform="translate(-44.416 -301.289)" fill="#fff"/>
    <path id="Path_1456" data-name="Path 1456" d="M92.306,300.277H68.98a12.051,12.051,0,0,0,2.144,2.262,15.58,15.58,0,0,0,19.037,0,12.064,12.064,0,0,0,2.144-2.262Zm0,0" transform="translate(-62.125 -270.435)" fill="#fff"/>
    <path id="Path_1457" data-name="Path 1457" d="M33.4,204.633a3.618,3.618,0,0,0,.471-7.206c-.078.012-30.619.012-30.7,0a3.618,3.618,0,0,0,.472,7.206Zm0,0" transform="translate(0 -177.806)" fill="#fff"/>
    <path id="Path_1458" data-name="Path 1458" d="M117.622,16.641V14.393a7.987,7.987,0,0,0,3.266-6.4,8.119,8.119,0,0,0-16.236,0,7.986,7.986,0,0,0,3.266,6.4v2.247Zm0,0" transform="translate(-94.252)" fill="#fff"/>
  </g>
</svg>
