<svg xmlns="http://www.w3.org/2000/svg" width="65.364" height="47.431" viewBox="0 0 65.364 47.431">
  <g id="icon-03" transform="translate(-1543 -1327)">
    <path id="baby" d="M104.8,201.857c-1.083-2.585-3.81-4.094-7.224-4.094H80.7c-9.129,0-16.793,10.638-6.424,20.864a.194.194,0,0,1-.187.3H66.414s-3.914,0-3.914,5.954c.187,3.847,3.19,4.467,3.728,4.467H81.87s3.922,0,4.094-4.7l.022-.179c.007-.695,0-4.28,0-4.28a1.074,1.074,0,0,1,.919-1.091H99.156a.356.356,0,0,1,.351.321l2.891,6.544c1.076,2.674,3.182,4.639,6.686,3.376a4.251,4.251,0,0,0,2.906-5.67L104.8,201.857ZM116.532,182.3a11.332,11.332,0,1,0,11.332,11.332A11.33,11.33,0,0,0,116.532,182.3Z" transform="translate(1480.5 1144.7)" fill="#fff"/>
  </g>
</svg>
