<svg xmlns="http://www.w3.org/2000/svg" width="66" height="47.715" viewBox="0 0 66 47.715">
  <g id="icon-11" transform="translate(0 -68.657)">
    <path id="Path_1459" data-name="Path 1459" d="M66,74.574V94.553s-4.276.842-5.157.953-3.638,1-5.637-.921c-3.084-2.956-14.042-13.853-14.042-13.853s-1.889-1.854-4.923-.252c-2.785,1.468-6.913,3.619-8.637,4.456a3.968,3.968,0,0,1-5.961-3.114,4.057,4.057,0,0,1,2.466-3.542c3.932-2.383,12.218-7.035,15.67-8.869,2.1-1.116,3.609-1.211,6.49,1.215,3.547,2.983,6.7,5.7,6.7,5.7a3.28,3.28,0,0,0,2.672.513C59.676,75.99,66,74.574,66,74.574ZM22.385,108.426A3.49,3.49,0,0,0,18.2,103.6a3.6,3.6,0,0,0-.76-3.554,3.683,3.683,0,0,0-3.522-.891,3.6,3.6,0,0,0-.762-3.549,3.976,3.976,0,0,0-5.567.146c-1.628,1.562-2.67,4.392-1.218,6.057s3.117.649,4.387.359c-.353,1.26-1.412,2.433-.108,4.083s3.117.649,4.388.362c-.355,1.256-1.367,2.546-.113,4.075s3.338.717,4.707.292c-.528,1.358-1.659,2.822-.206,4.463s4.8.888,6.44-.674a3.9,3.9,0,0,0,.353-5.519A3.718,3.718,0,0,0,22.385,108.426ZM52.26,98.032C40.424,86.2,45.991,91.765,39.622,85.382a4.149,4.149,0,0,0-4.437-.8c-1.771.776-4.051,1.834-5.767,2.641a9.516,9.516,0,0,1-3.879,1.29,6.581,6.581,0,0,1-3.477-12.18c2.63-1.82,8.684-5.04,8.684-5.04a7.6,7.6,0,0,0-5.884-2.337c-4.039,0-12.477,5.528-12.477,5.528a6.6,6.6,0,0,1-5.806.152L0,72.348V95.209s1.878.544,3.566,1.233a7.518,7.518,0,0,1,1.849-2.92,7.277,7.277,0,0,1,9.987-.072,6.3,6.3,0,0,1,1.576,2.8,6.378,6.378,0,0,1,2.7,1.648,6.289,6.289,0,0,1,1.579,2.794,6.43,6.43,0,0,1,4.372,4.712,6.47,6.47,0,0,1,2.82,1.69,6.652,6.652,0,0,1,1.745,5.763.01.01,0,0,1,.01,0c.025.033.948,1.062,1.524,1.643a2.9,2.9,0,0,0,4.1-4.1c-.04-.04-4.071-4.256-3.747-4.583s5.457,5.019,5.553,5.117a2.9,2.9,0,0,0,4.1-4.1c-.055-.053-.287-.274-.372-.362,0,0-5.091-4.536-4.7-4.923s6.717,5.512,6.727,5.512a2.863,2.863,0,0,0,4.125-3.959c-.02-.06-4.82-5.076-4.445-5.454s5.129,4.508,5.139,4.518a2.9,2.9,0,1,0,4.1-4.105C52.3,98.052,52.275,98.042,52.26,98.032Z" fill="#fff"/>
  </g>
</svg>
