<svg xmlns="http://www.w3.org/2000/svg" width="71.175" height="47.747" viewBox="0 0 71.175 47.747">
  <g id="icon-06" transform="translate(-1545.217 -1785.783)">
    <g id="down-arrow" transform="translate(1545.217 1841.834) rotate(-90)">
      <g id="Group_414" data-name="Group 414" transform="translate(32.304)">
        <path id="Path_1454" data-name="Path 1454" d="M56.008,15.065a.567.567,0,0,0-.523-.35h-6.2V.566A.566.566,0,0,0,48.717,0H39.662A.566.566,0,0,0,39.1.566V14.715H32.87a.566.566,0,0,0-.4.966L43.76,27.009a.567.567,0,0,0,.8,0L55.885,15.682A.565.565,0,0,0,56.008,15.065Z" transform="translate(-32.304)" fill="#fff"/>
      </g>
    </g>
    <g id="down-arrow-2" data-name="down-arrow" transform="translate(1616.392 1777.479) rotate(90)">
      <g id="Group_414-2" data-name="Group 414" transform="translate(32.304)">
        <path id="Path_1454-2" data-name="Path 1454" d="M56.008,15.065a.567.567,0,0,0-.523-.35h-6.2V.566A.566.566,0,0,0,48.717,0H39.662A.566.566,0,0,0,39.1.566V14.715H32.87a.566.566,0,0,0-.4.966L43.76,27.009a.567.567,0,0,0,.8,0L55.885,15.682A.565.565,0,0,0,56.008,15.065Z" transform="translate(-32.304)" fill="#fff"/>
      </g>
    </g>
  </g>
</svg>
