<svg xmlns="http://www.w3.org/2000/svg" width="33.373" height="63.206" viewBox="0 0 33.373 63.206">
  <g id="icon-05" transform="translate(-965.645 -1774.631)">
    <path id="milk" d="M269.309,124.472c8.647.376,17.214.766,25.788,1.134V76.016H269.309Zm16.816-28.648h1.134l-.022,2.644h.022l.3-.737.787-1.878h1.264l-1.336,2.543,1.286,3.337h-1.235l-.838-2.449-.274.47-.022,1.95h-1.134Zm-3.3-.043,1.134.029-.051,4.89,1.5.029-.022.961-2.644-.022.079-5.887Zm-2.174-.029,1.134.022-.051,5.851h-1.163Zm-5.338-.051H276.5l.441,2.124a17.316,17.316,0,0,1,.4,2.073h.022c.1-.672.246-1.307.4-2.044l.491-2.124,1.206.022.274,5.851h-1.011l-.072-2.044c-.022-.571-.051-1.336-.022-1.95H278.6c-.123.621-.3,1.336-.4,1.8l-.542,2.095-.816-.022-.441-2.073a14.028,14.028,0,0,1-.347-1.828h-.029c-.022.621-.072,1.358-.123,1.95l-.1,2.044-.982-.029Zm27.081-18.21c-.058-.159-.2-.376-.325-.4-2.037-.354-4.074-.679-6.162-1.033v49.279c2-1.235,3.908-2.42,5.837-3.561a1.241,1.241,0,0,0,.686-1.235Q302.4,99.272,302.415,78A1.681,1.681,0,0,0,302.393,77.49Zm-3.857-9.651H286.689a10.648,10.648,0,0,1-1.423,1.4,7.642,7.642,0,0,1-5.4,1.062c-1.719-.267-2-1.033-.953-2.492-1.849,0-3.648-.014-5.439.022-.173,0-.383.26-.491.448-1.148,2.015-2.275,4.045-3.409,6.068-.152.274-.289.549-.47.881.238.022.376.043.52.043q12.547,0,25.094.014a.774.774,0,0,0,.816-.556c.932-2.124,1.885-4.24,2.824-6.357.072-.159.108-.332.181-.535ZM287.477,72.1a13.907,13.907,0,0,1-2.969,1.567,8.5,8.5,0,0,1-5.244.26c-.982-.289-1.257-.679-1.264-1.726V69.949c2.55,1.791,7.577.52,8.784-1.647a24.816,24.816,0,0,1,1.12,2.651A1.375,1.375,0,0,1,287.477,72.1Zm-7.715-5a5.074,5.074,0,0,0,1.228-.2,7.179,7.179,0,0,1,4.572-.058,3.232,3.232,0,0,0,1.127.253c3.886.022,7.772.014,11.651.014h.686c.058-.116.094-.159.094-.2l.022-2.752c0-1.5-.253-1.755-1.763-1.755H275.262a6.174,6.174,0,0,0-.816.036,1,1,0,0,0-.953.968c-.051,1.206-.022,2.405-.022,3.662.318.014.556.029.795.029C276.107,67.11,277.934,67.124,279.762,67.1ZM296.015,75.4c2.138.361,4.24.715,6.458,1.084-1.084-2.868-2.117-5.627-3.207-8.517-1.1,2.463-2.138,4.775-3.171,7.1C296.065,75.142,296.058,75.236,296.015,75.4Z" transform="translate(696.545 1712.231)" fill="#fff"/>
  </g>
</svg>
