<svg xmlns="http://www.w3.org/2000/svg" width="74.209" height="36.744" viewBox="0 0 74.209 36.744">
  <g id="icon-12" transform="translate(0 -0.5)">
    <path id="Path_1460" data-name="Path 1460" d="M140.172,70.086h26.711V83.251H140.172Zm0,0" transform="translate(-116.423 -57.796)" fill="#fff"/>
    <path id="Path_1461" data-name="Path 1461" d="M406.018,48.953h-1.853V68.367h1.853a3.884,3.884,0,0,0,3.88-3.88V52.832a3.884,3.884,0,0,0-3.88-3.879Zm0,0" transform="translate(-335.688 -40.244)" fill="#fff"/>
    <path id="Path_1462" data-name="Path 1462" d="M325.188.5h-7.359V37.244h7.359a3.884,3.884,0,0,0,3.88-3.88V4.38A3.884,3.884,0,0,0,325.188.5Zm0,0" transform="translate(-263.98 0)" fill="#fff"/>
    <path id="Path_1463" data-name="Path 1463" d="M53.836,4.379V33.365a3.883,3.883,0,0,0,3.88,3.88h7.359V.5H57.715a3.884,3.884,0,0,0-3.88,3.88Zm0,0" transform="translate(-44.715)" fill="#fff"/>
    <path id="Path_1464" data-name="Path 1464" d="M0,52.833V64.487a3.884,3.884,0,0,0,3.88,3.88H5.733V48.953H3.88A3.884,3.884,0,0,0,0,52.833Zm0,0" transform="translate(0 -40.244)" fill="#fff"/>
  </g>
</svg>
