<svg xmlns="http://www.w3.org/2000/svg" width="21.775" height="63.456" viewBox="0 0 21.775 63.456">
  <g id="icon-01" transform="translate(-20.84)">
    <g id="Group_413" data-name="Group 413">
      <circle id="Ellipse_178" data-name="Ellipse 178" cx="6.073" cy="6.073" r="6.073" transform="translate(22.092 0)" fill="#fff"/>
      <path id="Path_1453" data-name="Path 1453" d="M37.333,19.493c-4.453-6.264-14.473-6.645-14.473-.074L22.9,32.156A11.6,11.6,0,0,0,20.84,39.03a11.563,11.563,0,0,0,2.11,6.94L23,60.059a3.4,3.4,0,0,0,3.4,3.4h.813c1.876,0,2.911-1.276,3.4-3.4.7-3.061,2.85-12.231,2.85-12.231,3.763-.915,9.157-6.08,9.157-13.583S38.365,20.942,37.333,19.493Z" fill="#fff"/>
    </g>
  </g>
</svg>
