<svg xmlns="http://www.w3.org/2000/svg" width="63.229" height="47.315" viewBox="0 0 63.229 47.315">
  <g id="icon-15" transform="translate(-1545 -3742)">
    <path id="basket" d="M115.513,182.638l4.465-5.39a1.019,1.019,0,0,0-.13-1.431l-3.418-2.832a1.019,1.019,0,0,0-1.431.13l-7.89,9.523a2.47,2.47,0,0,1-1.662.78H82.774a2.438,2.438,0,0,1-1.662-.78l-7.9-9.516a1.018,1.018,0,0,0-1.431-.13l-3.41,2.832a1.018,1.018,0,0,0-.13,1.431l4.473,5.383c.361.426.2.78-.368.78H63.512A1.01,1.01,0,0,0,62.5,184.43v7.2a1.01,1.01,0,0,0,1.012,1.012h4.552a1.219,1.219,0,0,1,1.171,1l3.887,25.412a1.213,1.213,0,0,0,1.171,1H113.93a1.219,1.219,0,0,0,1.171-1l3.894-25.4a1.213,1.213,0,0,1,1.171-1h4.552a1.01,1.01,0,0,0,1.012-1.012v-7.2a1.01,1.01,0,0,0-1.012-1.012h-8.844C115.318,183.411,115.151,183.064,115.513,182.638Zm-32.572,31.25H80.585a1.164,1.164,0,0,1-1.134-1l-2.059-16.915a.868.868,0,0,1,.889-1h4.668a1.01,1.01,0,0,1,1.012,1.012v16.907A1.024,1.024,0,0,1,82.941,213.888Zm13.974,0H92.247a1.01,1.01,0,0,1-1.012-1.012V195.969a1.01,1.01,0,0,1,1.012-1.012h4.668a1.01,1.01,0,0,1,1.012,1.012v16.907A1.015,1.015,0,0,1,96.915,213.888Zm11.886,0h-2.363a1.01,1.01,0,0,1-1.012-1.012V195.969a1.01,1.01,0,0,1,1.012-1.012h4.668a.868.868,0,0,1,.889,1l-2.059,16.922A1.17,1.17,0,0,1,108.8,213.888Z" transform="translate(1482.5 3569.25)" fill="#fff"/>
  </g>
</svg>
