<svg id="icon-14" xmlns="http://www.w3.org/2000/svg" width="58.594" height="58.594" viewBox="0 0 58.594 58.594">
  <path id="XMLID_293_" d="M8.138,335.484l-5.763,5.763a8.108,8.108,0,0,0,11.467,11.466L19.6,346.95Z" transform="translate(0 -296.494)" fill="#fff"/>
  <path id="XMLID_453_" d="M0,0H12.048V16.216H0Z" transform="translate(10.65 36.472) rotate(-45)" fill="#fff"/>
  <path id="XMLID_461_" d="M218.473,26.494a41.406,41.406,0,0,0-2.428-6.056c-2.4,1.844-6.267,4.632-8.858,5.546l-.589.208-1.185-3.356.589-.208c2.121-.749,5.9-3.481,8.3-5.344a39.34,39.34,0,0,0-4.474-5.951l-8.5,8.5-2.517-2.517,8.5-8.5a39.331,39.331,0,0,0-5.951-4.474c-1.864,2.4-4.6,6.179-5.344,8.3l-.208.589-3.356-1.185.208-.589c.915-2.591,3.7-6.46,5.547-8.858A41.417,41.417,0,0,0,192.15.171L191.6,0,191.2.406a34.75,34.75,0,0,0-6.942,9.868,31.375,31.375,0,0,0-2.95,11.3l-.208,3.218L193.85,37.547l3.218-.207a31.374,31.374,0,0,0,11.3-2.95,34.755,34.755,0,0,0,9.868-6.942l.406-.406Z" transform="translate(-160.05)" fill="#fff"/>
</svg>
