<svg xmlns="http://www.w3.org/2000/svg" width="51" height="54.999" viewBox="0 0 51 54.999">
  <g id="icon-09" transform="translate(-1535 -2523)">
    <path id="music-player" d="M52.66.249a1.012,1.012,0,0,0-.789-.241l-31,4.011A1,1,0,0,0,20,5.01V40.623A10.377,10.377,0,0,0,12,37C6.486,37,2,41.037,2,46s4.486,9,10,9,10-4.037,10-9c0-.232-.019-.46-.039-.687A.962.962,0,0,0,22,45.121v-29l29-3.753V30.622A10.38,10.38,0,0,0,43,27c-5.514,0-10,4.037-10,9s4.486,9,10,9c5.464,0,9.913-3.966,9.993-8.867,0-.013.007-.024.007-.037V1A1,1,0,0,0,52.66.249Z" transform="translate(1533 2522.999)" fill="#fff"/>
  </g>
</svg>
