<?xml version="1.0"?>
<svg xmlns="http://www.w3.org/2000/svg" height="512px" viewBox="0 0 64 64" width="512px"><g><g id="time"><path d="m59 14h-10.75a17 17 0 0 0 -32.5 0h-10.75a3.009 3.009 0 0 0 -3 3v32a3.009 3.009 0 0 0 3 3h19.82l-.67 4h-1.15a1.014 1.014 0 0 0 -.8.4l-3 4a1 1 0 0 0 .8 1.6h24a1 1 0 0 0 .8-1.6l-3-4a1.014 1.014 0 0 0 -.8-.4h-1.15l-.67-4h19.82a3.009 3.009 0 0 0 3-3v-32a3.009 3.009 0 0 0 -3-3zm-41.95 4a14.915 14.915 0 0 1 1.5-5.61l2.56 1.48 1-1.74-2.57-1.48a15.165 15.165 0 0 1 4.11-4.11l1.48 2.57 1.74-1-1.48-2.56a14.915 14.915 0 0 1 5.61-1.5v2.95h2v-2.95a14.915 14.915 0 0 1 5.61 1.5l-1.48 2.56 1.74 1 1.48-2.57a15.165 15.165 0 0 1 4.11 4.11l-2.57 1.48 1 1.74 2.56-1.48a14.915 14.915 0 0 1 1.5 5.61h-2.95v2h2.95a14.915 14.915 0 0 1 -1.5 5.61l-2.56-1.48-1 1.74 2.57 1.48a15.165 15.165 0 0 1 -4.11 4.11l-1.48-2.57-1.74 1 1.48 2.56a14.915 14.915 0 0 1 -5.61 1.5v-2.95h-2v2.95a14.915 14.915 0 0 1 -5.61-1.5l1.48-2.56-1.74-1-1.48 2.57a15.165 15.165 0 0 1 -4.11-4.11l2.57-1.48-1-1.74-2.56 1.48a14.915 14.915 0 0 1 -1.5-5.61h2.95v-2zm23.45 40 1.5 2h-20l1.5-2zm-14.32-2 .67-4h10.3l.67 4zm33.82-7a1 1 0 0 1 -1 1h-54a1 1 0 0 1 -1-1v-3h56zm0-5h-56v-27a1 1 0 0 1 1-1h10.28a17.432 17.432 0 0 0 -.28 3 17 17 0 0 0 34 0 17.432 17.432 0 0 0 -.28-3h10.28a1 1 0 0 1 1 1z" data-original="#000000" class="active-path" data-old_color="#000000" fill="#FFFFFF"/><path d="m31.5 19.865a1 1 0 0 0 1 0l7-4-1-1.733-5.5 3.145v-8.277h-2v10a1 1 0 0 0 .5.865z" data-original="#000000" class="active-path" data-old_color="#000000" fill="#FFFFFF"/><path d="m6 40h16v2h-16z" data-original="#000000" class="active-path" data-old_color="#000000" fill="#FFFFFF"/><path d="m46 32h2v2h-2z" data-original="#000000" class="active-path" data-old_color="#000000" fill="#FFFFFF"/><path d="m42 36h16v2h-16z" data-original="#000000" class="active-path" data-old_color="#000000" fill="#FFFFFF"/><path d="m42 40h16v2h-16z" data-original="#000000" class="active-path" data-old_color="#000000" fill="#FFFFFF"/><path d="m50 32h8v2h-8z" data-original="#000000" class="active-path" data-old_color="#000000" fill="#FFFFFF"/><path d="m16 32h2v2h-2z" data-original="#000000" class="active-path" data-old_color="#000000" fill="#FFFFFF"/><path d="m6 36h16v2h-16z" data-original="#000000" class="active-path" data-old_color="#000000" fill="#FFFFFF"/><path d="m6 32h8v2h-8z" data-original="#000000" class="active-path" data-old_color="#000000" fill="#FFFFFF"/></g></g> </svg>
