<?xml version="1.0"?>
<svg xmlns="http://www.w3.org/2000/svg" xmlns:xlink="http://www.w3.org/1999/xlink" version="1.1" id="Capa_1" x="0px" y="0px" viewBox="0 0 480 480" style="enable-background:new 0 0 480 480;" xml:space="preserve" width="512px" height="512px"><g><g>
	<g>
		<rect x="226.143" y="96" width="120" height="16" data-original="#000000" class="active-path" data-old_color="#000000" fill="#FFFFFF"/>
	</g>
</g><g>
	<g>
		<rect x="226.143" y="192" width="120" height="16" data-original="#000000" class="active-path" data-old_color="#000000" fill="#FFFFFF"/>
	</g>
</g><g>
	<g>
		<rect x="226.143" y="128" width="80" height="16" data-original="#000000" class="active-path" data-old_color="#000000" fill="#FFFFFF"/>
	</g>
</g><g>
	<g>
		<rect x="322.143" y="128" width="24" height="16" data-original="#000000" class="active-path" data-old_color="#000000" fill="#FFFFFF"/>
	</g>
</g><g>
	<g>
		<rect x="268.143" y="160" width="78" height="16" data-original="#000000" class="active-path" data-old_color="#000000" fill="#FFFFFF"/>
	</g>
</g><g>
	<g>
		<rect x="226.143" y="160" width="32" height="16" data-original="#000000" class="active-path" data-old_color="#000000" fill="#FFFFFF"/>
	</g>
</g><g>
	<g>
		<rect x="105.647" y="128" width="72" height="16" data-original="#000000" class="active-path" data-old_color="#000000" fill="#FFFFFF"/>
	</g>
</g><g>
	<g>
		<rect x="105.647" y="160" width="16.496" height="16" data-original="#000000" class="active-path" data-old_color="#000000" fill="#FFFFFF"/>
	</g>
</g><g>
	<g>
		<rect x="137.647" y="160" width="40.496" height="16" data-original="#000000" class="active-path" data-old_color="#000000" fill="#FFFFFF"/>
	</g>
</g><g>
	<g>
		<rect x="105.647" y="192" width="40.496" height="16" data-original="#000000" class="active-path" data-old_color="#000000" fill="#FFFFFF"/>
	</g>
</g><g>
	<g>
		<rect x="162.143" y="192" width="16" height="16" data-original="#000000" class="active-path" data-old_color="#000000" fill="#FFFFFF"/>
	</g>
</g><g>
	<g>
		<rect x="202.143" y="32" width="16" height="16" data-original="#000000" class="active-path" data-old_color="#000000" fill="#FFFFFF"/>
	</g>
</g><g>
	<g>
		<rect x="138.143" y="32" width="16" height="16" data-original="#000000" class="active-path" data-old_color="#000000" fill="#FFFFFF"/>
	</g>
</g><g>
	<g>
		<rect x="266.143" y="32" width="16" height="16" data-original="#000000" class="active-path" data-old_color="#000000" fill="#FFFFFF"/>
	</g>
</g><g>
	<g>
		<path d="M472.695,273.144c-4.576-5.808-11.448-9.144-18.848-9.144h-35.704v-16c0-13.232-10.768-24-24-24h-16V24    c0-13.232-10.768-24-24-24h-48h-192h-48c-13.232,0-24,10.768-24,24v200h-16c-13.232,0-24,10.768-24,24v208    c0,13.232,10.768,24,24,24h384h3.384c11.144,0,20.736-7.568,23.336-18.4l40.32-168    C478.911,286.408,477.279,278.952,472.695,273.144z M122.143,16h176v40c0,4.408-3.592,8-8,8h-160c-4.408,0-8-3.592-8-8V16z     M58.143,24c0-4.408,3.592-8,8-8h40v40c0,13.232,10.768,24,24,24h160c13.232,0,24-10.768,24-24V16h40c4.408,0,8,3.592,8,8v200    h-152V104c0-4.416-3.584-8-8-8h-120c-4.416,0-8,3.584-8,8v120h-16V24z M194.143,112v112h-104V112H194.143z M402.143,272v192h-376    c-4.408,0-8-3.592-8-8V248c0-4.408,3.592-8,8-8h24h32h120h168h24c4.408,0,8,3.592,8,8V272z M461.631,289.864l-40.32,168    c-0.472,1.952-1.624,3.592-3.168,4.672V280h35.704c2.464,0,4.752,1.112,6.28,3.048    C461.655,284.984,462.207,287.472,461.631,289.864z" data-original="#000000" class="active-path" data-old_color="#000000" fill="#FFFFFF"/>
	</g>
</g><g>
	<g>
		<polygon points="218.143,344 218.143,312 202.143,312 202.143,344 170.143,344 170.143,360 202.143,360 202.143,392 218.143,392     218.143,360 250.143,360 250.143,344   " data-original="#000000" class="active-path" data-old_color="#000000" fill="#FFFFFF"/>
	</g>
</g><g>
	<g>
		<path d="M210.143,272c-44.112,0-80,35.888-80,80s35.888,80,80,80s80-35.888,80-80S254.255,272,210.143,272z M210.143,416    c-35.288,0-64-28.712-64-64c0-35.288,28.712-64,64-64c35.288,0,64,28.712,64,64C274.143,387.288,245.431,416,210.143,416z" data-original="#000000" class="active-path" data-old_color="#000000" fill="#FFFFFF"/>
	</g>
</g><g>
	<g>
		<rect x="66.143" y="368" width="16" height="16" data-original="#000000" class="active-path" data-old_color="#000000" fill="#FFFFFF"/>
	</g>
</g><g>
	<g>
		<rect x="66.143" y="416" width="16" height="16" data-original="#000000" class="active-path" data-old_color="#000000" fill="#FFFFFF"/>
	</g>
</g><g>
	<g>
		<rect x="66.143" y="320" width="16" height="16" data-original="#000000" class="active-path" data-old_color="#000000" fill="#FFFFFF"/>
	</g>
</g><g>
	<g>
		<rect x="66.143" y="272" width="16" height="16" data-original="#000000" class="active-path" data-old_color="#000000" fill="#FFFFFF"/>
	</g>
</g><g>
	<g>
		<rect x="338.143" y="368" width="16" height="16" data-original="#000000" class="active-path" data-old_color="#000000" fill="#FFFFFF"/>
	</g>
</g><g>
	<g>
		<rect x="338.143" y="416" width="16" height="16" data-original="#000000" class="active-path" data-old_color="#000000" fill="#FFFFFF"/>
	</g>
</g><g>
	<g>
		<rect x="338.143" y="320" width="16" height="16" data-original="#000000" class="active-path" data-old_color="#000000" fill="#FFFFFF"/>
	</g>
</g><g>
	<g>
		<rect x="338.143" y="272" width="16" height="16" data-original="#000000" class="active-path" data-old_color="#000000" fill="#FFFFFF"/>
	</g>
</g></g> </svg>
