<?xml version="1.0"?>
<svg xmlns="http://www.w3.org/2000/svg" height="512px" viewBox="0 -17 512.009 512" width="512px"><g><path d="m68.265625 165.109375c2.574219-.003906 5.011719-1.164063 6.632813-3.167969 12.929687-16.085937 32.460937-25.433594 53.101562-25.410156 4.714844 0 8.535156-3.820312 8.535156-8.535156 0-4.710938-3.820312-8.53125-8.535156-8.53125-25.789062-.03125-50.203125 11.644531-66.363281 31.742187-2.070313 2.554688-2.484375 6.074219-1.070313 9.042969 1.417969 2.964844 4.414063 4.855469 7.699219 4.859375zm0 0" data-original="#000000" class="active-path" data-old_color="#000000" fill="#FFFFFF"/><path d="m59.734375 204.796875c0-5.105469.574219-10.195313 1.707031-15.171875.996094-4.574219-1.878906-9.097656-6.445312-10.136719-4.5625-1.039062-9.113282 1.792969-10.195313 6.347657-1.414062 6.21875-2.132812 12.582031-2.132812 18.960937 0 4.710937 3.820312 8.53125 8.53125 8.53125 4.714843 0 8.535156-3.820313 8.535156-8.53125zm0 0" data-original="#000000" class="active-path" data-old_color="#000000" fill="#FFFFFF"/><path d="m450.363281 151.207031c-16.160156-20.097656-40.574219-31.773437-66.363281-31.742187-4.710938 0-8.53125 3.820312-8.53125 8.53125 0 4.714844 3.820312 8.535156 8.53125 8.535156 20.640625-.023438 40.171875 9.324219 53.101562 25.410156 1.890626 2.457032 4.964844 3.699219 8.03125 3.238282 3.0625-.457032 5.640626-2.542969 6.726563-5.445313s.515625-6.167969-1.496094-8.527344zm0 0" data-original="#000000" class="active-path" data-old_color="#000000" fill="#FFFFFF"/><path d="m450.558594 189.625c1.136718 4.976562 1.707031 10.066406 1.707031 15.171875 0 4.710937 3.820313 8.53125 8.535156 8.53125 4.710938 0 8.53125-3.820313 8.53125-8.53125.003907-6.378906-.710937-12.738281-2.125-18.960937-.589843-3.058594-2.800781-5.550782-5.769531-6.503907-2.964844-.949219-6.214844-.210937-8.476562 1.933594-2.261719 2.140625-3.175782 5.34375-2.382813 8.359375zm0 0" data-original="#000000" class="active-path" data-old_color="#000000" fill="#FFFFFF"/><path d="m469.332031 93.863281c-6.917969.066407-13.714843 1.824219-19.796875 5.121094-44.875-62.160156-116.871094-98.98046875-193.535156-98.98046875s-148.660156 36.82031275-193.535156 98.98046875c-6.082032-3.300781-12.878906-5.058594-19.796875-5.121094-17.695313-.03125-33.566407 10.882813-39.871094 27.417969s-1.726563 35.242188 11.496094 47c-8.636719 26.691406-7.53125 55.582031 3.117187 81.535156 5.742188 127.582032 110.835938 228.066406 238.542969 228.082032 127.710937.019531 232.832031-100.433594 238.613281-228.011719 10.667969-25.972657 11.78125-54.886719 3.148438-81.605469 13.226562-11.757812 17.800781-30.46875 11.496094-47.003906-6.304688-16.535156-22.179688-27.449219-39.878907-27.414063zm17.066407 110.933594c0 56.554687-45.84375 102.398437-102.398438 102.398437s-102.398438-45.84375-102.398438-102.398437 45.84375-102.402344 102.398438-102.402344c56.527344.0625 102.339844 45.875 102.398438 102.402344zm-230.398438-187.734375c63.367188-.015625 123.710938 27.097656 165.777344 74.488281-31.253906-10.523437-65.472656-7.605469-94.496094 8.050781s-50.25 42.652344-58.617188 74.550782c-7.804687-4.648438-17.523437-4.648438-25.328124 0-8.367188-31.898438-29.59375-58.894532-58.617188-74.550782s-63.242188-18.574218-94.496094-8.050781c42.066406-47.390625 102.410156-74.503906 165.777344-74.488281zm-230.398438 187.734375c0-56.554687 45.84375-102.402344 102.398438-102.402344s102.398438 45.847657 102.398438 102.402344-45.84375 102.398437-102.398438 102.398437c-56.527344-.058593-102.339844-45.871093-102.398438-102.398437zm-8.535156-68.265625c0-14.140625 11.460938-25.601562 25.601563-25.601562 3.179687.011718 6.328125.621093 9.28125 1.800781-12.597657 10.46875-22.925781 23.402343-30.34375 38.007812-2.910157-4.171875-4.492188-9.125-4.539063-14.207031zm238.933594 324.265625c-105.304688.347656-196.222656-73.667969-217.242188-176.855469 32.855469 37.199219 85.308594 50.167969 131.714844 32.570313 46.402344-17.597657 77.066406-62.085938 76.996094-111.714844 0-2.304687-.214844-4.546875-.34375-6.828125.175781-.554688.289062-1.125.34375-1.707031 0-4.710938 3.820312-8.53125 8.53125-8.53125 4.714844 0 8.535156 3.820312 8.535156 8.53125.050782.582031.167969 1.152343.339844 1.707031-.128906 2.269531-.339844 4.515625-.339844 6.828125-.066406 49.625 30.59375 94.109375 76.996094 111.707031 46.402344 17.601563 98.851562 4.636719 131.710938-32.550781-21.019532 103.183594-111.9375 177.195313-217.242188 176.84375zm204.050781-348.066406c10.402344-4.214844 22.34375-1.085938 29.347657 7.6875 7.003906 8.773437 7.410156 21.105469.996093 30.320312-7.421875-14.605469-17.746093-27.539062-30.34375-38.007812zm0 0" data-original="#000000" class="active-path" data-old_color="#000000" fill="#FFFFFF"/><path d="m141.703125 169.972656 6.453125 2.765625c-7.683594 8.890625-11.824219 20.304688-11.621094 32.058594 0 23.894531 14.992188 42.667969 34.132813 42.667969s34.132812-18.773438 34.132812-42.667969c-.015625-2.914063-.269531-5.816406-.769531-8.6875.257812 0 .511719.152344.769531.152344 4.050781 0 7.542969-2.847657 8.355469-6.816407.816406-3.96875-1.273438-7.960937-4.992188-9.558593l-59.734374-25.597657c-2.8125-1.253906-6.078126-.898437-8.554688.933594-2.472656 1.832032-3.765625 4.855469-3.386719 7.910156.375 3.054688 2.371094 5.667969 5.214844 6.839844zm28.964844 60.421875c-9.25 0-17.066407-11.722656-17.066407-25.597656-.734374-9.796875 3.992188-19.203125 12.296876-24.457031l17.203124 7.390625c3.074219 5.15625 4.675782 11.058593 4.632813 17.066406 0 13.875-7.816406 25.597656-17.066406 25.597656zm0 0" data-original="#000000" class="active-path" data-old_color="#000000" fill="#FFFFFF"/><path d="m374.777344 158.765625c-1.859375-4.328125-6.875-6.335937-11.207032-4.476563l-59.730468 25.597657c-3.722656 1.597656-5.8125 5.589843-4.996094 9.558593.8125 3.96875 4.304688 6.816407 8.355469 6.816407.257812 0 .511719-.125.769531-.152344-.492188 2.871094-.75 5.773437-.769531 8.6875 0 23.894531 14.992187 42.667969 34.132812 42.667969s34.136719-18.773438 34.136719-42.667969c.199219-11.753906-3.9375-23.167969-11.625-32.058594l6.453125-2.765625c4.328125-1.859375 6.335937-6.875 4.480469-11.207031zm-16.378906 46.03125c0 13.875-7.816407 25.597656-17.066407 25.597656s-17.066406-11.722656-17.066406-25.597656c-.042969-6.007813 1.558594-11.910156 4.636719-17.066406l17.203125-7.375c8.292969 5.253906 13.019531 14.648437 12.292969 24.441406zm0 0" data-original="#000000" class="active-path" data-old_color="#000000" fill="#FFFFFF"/><path d="m281.941406 325.117188c-57.539062-8.328126-115.003906 50.492187-117.417968 53-3.269532 3.394531-3.171876 8.796874.222656 12.066406 3.390625 3.269531 8.792968 3.171875 12.066406-.222656.535156-.554688 53.757812-55.046876 102.679688-47.957032 21.835937 3.175782 40.105468 18.636719 54.265624 45.960938 1.402344 2.707031 4.140626 4.460937 7.1875 4.597656 3.042969.140625 5.933594-1.355469 7.578126-3.921875 1.640624-2.570313 1.789062-5.820313.386718-8.527344-16.84375-32.539062-39.378906-51.039062-66.96875-54.996093zm0 0" data-original="#000000" class="active-path" data-old_color="#000000" fill="#FFFFFF"/></g> </svg>
