<?xml version="1.0"?>
<svg xmlns="http://www.w3.org/2000/svg" id="icons" enable-background="new 0 0 64 64" height="512px" viewBox="0 0 64 64" width="512px"><g><path d="m62 27.01h-10.994c-1.103 0-2 .897-2 2v2.981h-5.238c-.571-1.998-2.228-3.519-4.321-3.882-1.047-2.678-3.492-4.656-6.437-5.03v-7.077h4.992c.553 0 1-.448 1-1v-13.981c0-.007.004-.013.004-.02 0-.416-.253-.771-.614-.922-.119-.051-.251-.079-.39-.079-.002 0-.003.001-.005.001h-11.997c-.553 0-1 .448-1 1v14c0 .552.447 1 1 1h5.01v7.074c-3.295.409-5.968 2.827-6.761 5.989-1.719.266-3.153 1.392-3.827 2.938h-5.424v-4.003c0-.552-.447-1-1-1h-2.996v-1.999c0-.552-.447-1-1-1h-5c-.553 0-1 .448-1 1v1.999h-3.002c-.553 0-1 .448-1 1v10.001c0 .553.447 1 1 1h12.998c.553 0 1-.447 1-1v-3.998h5.006v3.998c0 2.76 2.246 5.005 5.008 5.005h5.998v6.994h-5.996c-.553 0-1 .447-1 1v12c0 .553.447 1 1 1h13.992c.553 0 1-.447 1-1v-12c0-.553-.447-1-1-1h-5.996v-6.994h5.492c3.032 0 5.5-2.466 5.5-5.496v-3.518h5.004v3.015c0 1.103.897 2 2 2h2.609l-.332.993h-.279c-.553 0-1 .447-1 1s.447 1 1 1h6.998c.553 0 1-.447 1-1s-.447-1-1-1h-.279l-.332-.993h2.609c1.103 0 2-.897 2-2v-7.996c0-1.103-.897-2-2-2zm-35-13.008v-12h10.002v12zm-20.998 11.998h3v.999h-3zm6.996 11h-10.998v-8.001h3.002 5 2.996zm13.016 24.999v-4h11.992v4zm11.992-6h-2.99c.365-.003.714-.203.889-.552l1-2c.247-.494.047-1.095-.447-1.342-.494-.246-1.095-.047-1.342.447l-1 2c-.247.494-.047 1.095.447 1.342.143.07.293.104.442.104h-2.989c.365-.003.714-.203.889-.552l1-2c.247-.494.047-1.095-.447-1.342-.493-.246-1.094-.047-1.342.447l-1 2c-.247.494-.047 1.095.447 1.342.143.07.293.104.442.104h-5.991v-4h5.986c.004 0 .006.002.01.002s.006-.002.01-.002h5.986zm-13.975-24.834c.078.475.472.843.969.843.553 0 1-.448 1-1 0-3.309 2.69-6 5.998-6 3.309 0 6 2.691 6 6 0 .552.447 1 1 1s1-.448 1-1c0-.231-.016-.459-.035-.686 1.208.553 2.039 1.77 2.039 3.18 0 1.928-1.57 3.496-3.5 3.496h-13.49c-1.658 0-3.008-1.348-3.008-3.005 0-1.312.851-2.419 2.027-2.828zm14.471 9.84h-5.492v-.006c0-.553-.447-1-1-1s-1 .447-1 1v.006h-5.998c-1.658 0-3.008-1.348-3.008-3.005v-.031c.84.637 1.875 1.029 3.008 1.029h13.49c1.317 0 2.526-.466 3.475-1.24-.13 1.809-1.63 3.247-3.475 3.247zm19.113-1.006h-2.225l.332-.993h1.561zm4.381-2.993h-3.904c-.011-.001-.021.001-.032 0h-3.112c-.011.001-.021-.001-.032 0h-3.909v-7.996h10.993z" data-original="#000000" class="active-path" data-old_color="#000000" fill="#FFFFFF"/><path d="m28.042 53.002h-.011c-.552 0-.994.447-.994 1s.452 1 1.005 1c.552 0 1-.447 1-1s-.448-1-1-1z" data-original="#000000" class="active-path" data-old_color="#000000" fill="#FFFFFF"/><path d="m28.042 59h-.011c-.552 0-.994.447-.994 1s.452 1 1.005 1c.552 0 1-.447 1-1s-.448-1-1-1z" data-original="#000000" class="active-path" data-old_color="#000000" fill="#FFFFFF"/><path d="m33.457 58.104c-.493-.245-1.094-.047-1.342.447l-1 2c-.247.494-.047 1.095.447 1.342.144.071.296.105.446.105.367 0 .72-.202.896-.553l1-2c.247-.494.047-1.094-.447-1.341z" data-original="#000000" class="active-path" data-old_color="#000000" fill="#FFFFFF"/><path d="m36.457 58.104c-.494-.245-1.095-.047-1.342.447l-1 2c-.247.494-.047 1.095.447 1.342.144.071.296.105.446.105.367 0 .72-.202.896-.553l1-2c.247-.494.047-1.094-.447-1.341z" data-original="#000000" class="active-path" data-old_color="#000000" fill="#FFFFFF"/><path d="m9 32h-.5v-.5c0-.552-.447-1-1-1s-1 .448-1 1v.5h-.5c-.553 0-1 .448-1 1 0 .553.447 1 1 1h.5v.5c0 .553.447 1 1 1s1-.447 1-1v-.5h.5c.553 0 1-.447 1-1 0-.552-.447-1-1-1z" data-original="#000000" class="active-path" data-old_color="#000000" fill="#FFFFFF"/><path d="m31 5.999c0 .552.447 1 1 1s.999-.447 1-.999c.553 0 1-.448 1-1s-.447-1-1-1c-.001-.553-.447-1-1-1s-1 .447-1 1c-.552.001-.998.448-.998 1s.446.998.998.999z" data-original="#000000" class="active-path" data-old_color="#000000" fill="#FFFFFF"/><path d="m35 7.998h-6c-.553 0-1 .448-1 1s.447 1 1 1h6c.553 0 1-.448 1-1s-.447-1-1-1z" data-original="#000000" class="active-path" data-old_color="#000000" fill="#FFFFFF"/><path d="m32.998 11.001h-1.996c-.553 0-1 .448-1 1s.447 1 1 1h1.996c.553 0 1-.448 1-1s-.447-1-1-1z" data-original="#000000" class="active-path" data-old_color="#000000" fill="#FFFFFF"/><path d="m54.502 34h1v1.001c0 .553.447 1 1 1s1-.447 1-1v-1.001h1c.553 0 1-.447 1-1 0-.552-.447-1-1-1h-1v-1c0-.552-.447-1-1-1s-1 .448-1 1v1h-1c-.553 0-1 .448-1 1 0 .553.447 1 1 1z" data-original="#000000" class="active-path" data-old_color="#000000" fill="#FFFFFF"/></g> </svg>
