<svg xmlns="http://www.w3.org/2000/svg" width="180.117" height="198.382" viewBox="0 0 180.117 198.382">
  <g id="parent_6" transform="translate(1.566 1.509)">
    <g id="Layer_1" data-name="Layer 1" transform="translate(0.481 0.497)">
      <path id="Path_50" data-name="Path 50" d="M174.154,158.773c-1.328-3.347-5.1-10.44-7.332-8.208-1.328,0-1.886.319-5.313,3.772-2.231-2.231-6.216,2.869-11.555,1.089S128.7,126.817,128.7,126.817V80.224c0-12.219-4.436-13.1-13.282-15.752S98.606,56.927,98.606,52.7a6.614,6.614,0,0,1,1.381-3.958c3.506.638,5.818,1.328,5.818,1.328s6.03-1.939,6.03-22.951C111.755-.69,93.187-.823,88.511,1.3,83.809-.823,65.268-.69,65.268,27.122c0,21.012,6,22.951,6,22.951s2.311-.691,5.818-1.328A6.614,6.614,0,0,1,78.47,52.7c0,4.224-7.969,9.085-16.815,11.768S48.373,68,48.373,80.224v46.593s-15.938,26.856-21.251,28.609-9.324-3.32-11.635-1.089c-3.427-3.453-3.985-3.772-5.313-3.772-2.231-2.231-6,4.861-7.332,8.208,0,0-5.313.77,0,5.977s7.783,4.224,11.1,4.224a15.248,15.248,0,0,0,2.656-.319c-5.472,2.816-9.377,5.632-9.722,7.969C5.525,185.5,5.1,196.149,27.069,194.608s61.469-10.44,61.469-10.44,39.448,8.926,61.416,10.546,21.543-9.111,20.189-17.984c-.345-2.444-4.25-5.313-9.7-7.969a14.717,14.717,0,0,0,2.656.319c3.347,0,5.9,1.009,11.1-4.224S174.154,158.773,174.154,158.773ZM9.271,161.43c-2.2,0,0-4.436,0-6.668,2.656,0,3.56,1.116,3.56,3.347a3.108,3.108,0,0,1-3.56,3.321ZM63.2,139.01c-2.444,2.444-3.666,11.21-5.764,13.282C56.422,153.328,45,156.94,33.258,161.43a15.168,15.168,0,0,0,1.541-1.355c5.764-5.764,23.748-21.092,25.528-26.564s.877-26.83.877-30.841c0,0,1.78,13.1,3.985,22.208S65.613,136.566,63.2,139.01Zm56.369,13.282c-2.1-2.1-3.321-10.865-5.764-13.282s-4.224-5.1-1.992-14.185,3.985-22.208,3.985-22.208c0,4.011-.877,25.315.877,30.841s19.764,20.879,25.528,26.564a18.6,18.6,0,0,0,1.541,1.355c-11.715-4.41-23.164-8.129-24.173-9.058Zm48.161,9.111a3.108,3.108,0,0,1-3.56-3.321c0-2.231.877-3.347,3.56-3.347,0,2.258,2.2,6.694,0,6.694Z" transform="translate(-0.481 -0.497)" fill="none" stroke="#fff" stroke-miterlimit="10" stroke-width="4"/>
    </g>
  </g>
</svg>
