<svg xmlns="http://www.w3.org/2000/svg" width="145.621" height="171.299" viewBox="0 0 145.621 171.299">
  <g id="parent_3" transform="translate(-57 -49.49)">
    <path id="Path_33" data-name="Path 33" d="M127.173,128.9c-.821.8-1.591,1.711-2.344,2.5A63.9,63.9,0,0,0,61.357,74.12H58.5V94.547h2.857a43.387,43.387,0,0,1,0,86.774H58.5v20.427h2.857a63.3,63.3,0,0,0,45.115-18.7,64.124,64.124,0,0,0,6.467-7.545,51.428,51.428,0,0,0,14.234,26.723L136,193.383a39.348,39.348,0,1,1,55.655-55.638L200.5,128.9a51.838,51.838,0,0,0-73.327,0Z" transform="translate(0 16.442)" fill="none" stroke="#fff" stroke-width="3"/>
    <path id="Path_34" data-name="Path 34" d="M97.634,93.419a21.214,21.214,0,1,0-21.214-21.2,21.214,21.214,0,0,0,21.214,21.2Z" transform="translate(12.738 0)" fill="none" stroke="#fff" stroke-width="3"/>
    <path id="Path_35" data-name="Path 35" d="M128,106.1A15.158,15.158,0,1,0,112.86,90.955,15.158,15.158,0,0,0,128,106.1Z" transform="translate(38.641 17.622)" fill="none" stroke="#fff" stroke-width="3"/>
  </g>
</svg>
