<svg xmlns="http://www.w3.org/2000/svg" width="239.213" height="208.242" viewBox="0 0 239.213 208.242">
  <g id="parent_1" transform="translate(-295.464 -881.222)">
    <g id="sleeping_baby" data-name="sleeping baby" transform="translate(138 640)">
      <g id="baby" transform="translate(103.358 62.882)">
        <g id="FHfNYN.tif" transform="translate(100.034 178.34)">
          <path id="Path_1" data-name="Path 1" d="M180.985,194.847c1.87-6.953,8.273-8.012,13.53-3.866,7.3,5.8,9.036,17.227,3.213,24.489-1.029,1.281,2.373,8.215,2.373,8.215h0c8.3-2.3,16.71-6.393,24.644-10.505,11.041-5.716,22.817-8.113,35.028-3.716a28.264,28.264,0,0,1,15.274,12.38,39.315,39.315,0,0,1,3.088,31.6l3.474,2.281c8.369,5.489,13.53,19.754,11.114,29.848-.792,4.383-2.769,7.693-6.992,8.49-5.03.966-9.3-2.005-12.134-5.731s-2.416-3.209-6.659-.184c-10.974,7.113-25.755,9.36-37.048,6.717-6.47-1.648-10.147-5.4-12.762-10.447a26.128,26.128,0,0,1-2.087-6.992c-.145-.875-1.319-.9-1.976-1.02-.15,6.055-2.542,11.5-7.731,15.12-5.8,4-14.835,4-21.745.034-2.7-1.483-5.088-2.74-8.437-2.687a14.047,14.047,0,0,1-12-5.528h0a31.732,31.732,0,0,1-21.585-5.064c-7.93-5.518-40.107-15.627-41.479-50.071-.831-20.682,8.606-31.172,16.734-38.454,7.485-6.712,15.564-11.438,28.954-11.414,8.389,0,20.44,3.383,27.915,9.732a84.411,84.411,0,0,1,7.3,6.775ZM130.5,186.013c-8.036,3.8-14.071,10.022-18.845,17.26a41.784,41.784,0,0,0-5.025,36.038c2.938,9.717,7.954,17.565,16.352,23.46a201.363,201.363,0,0,0,21.493,12.694c11.636,6.195,23.243,5.315,34.067-1.45,7.248-4.523,12.81-11.674,16.2-19.725,5.378-12.762,5.4-26.422-3.45-38.792-4.832-6.765-9.742-13.564-15.2-19.87C167.436,185.6,146.706,178.35,130.5,186.013Zm102.925,59.493a.652.652,0,0,1,.71,1.078c-3.774,3.354-9.7,8.852-13.018,16.666-3.9,9.181-3.774,18.1,2.319,23.745,3.866,3.59,8.93,4.919,13.839,4.972,14.1.145,26.968-3.556,37.038-14.206,1.725-1.827,2.687-3.866,3.291-2.194.42,1.15-.836,3.112-1.672,4.31-2.112,3.01-1.933,3.315,1.1,6.432,6.185,6.412,10.809,3.044,11.819-.928a24.987,24.987,0,0,0-6.316-23.547c-3.18-3.276-5.745-3.03-9.553-.377-4.745,3.305-9.64,6.417-15.26,7.944a.551.551,0,0,1-.435-1.005,26.81,26.81,0,0,0,2.329-1.483c6.683-4.987,13.781-9.766,15.535-18.729a48.437,48.437,0,0,0,.623-10.394,26.615,26.615,0,0,0-20.57-25.456c-10.4-2.29-20.459.246-30.186,5.054-10.172,5.025-17.26,8.572-23.977,10.326,0,0,.662,1.4.865,6.5a48.727,48.727,0,0,1-11.694,34.144,11.993,11.993,0,0,1,2.663.367c2.489.86,4.2,2.455,4.6,4.228.594,2.711-1.691.28-3.866-.7-3.532-1.595-6.374-.773-9.118,1.324a47.869,47.869,0,0,1-12.114,6.958,42.43,42.43,0,0,1-4.958,1.223c0,1.353,2.344,2.595,4.542,3.165a10.829,10.829,0,0,0,4.484.42c.44-1.247-2.049-1.778-.483-2.967s6.436,3.759,7.872,5.069c4.61,4.214,13.776,4.934,18.5,2,7.147-4.441,8.572-11.7,4.731-19.14a24.385,24.385,0,0,0-6.992-7.64c-.908-.7-3.151-2.416-1.416-3.334.7-.377,2.223.483,3.209,1.068a24.063,24.063,0,0,1,9.5,10.21,3.977,3.977,0,0,0,1.8,2.03c1.546.884,1.483-1.208,1.662-2.092,2.571-12.824,11.491-21.725,18.618-25.05ZM187.7,204.148A18.077,18.077,0,0,1,187.76,200c.145-1.01.541-2.416,1.595-2.15.744.193.846,1.387.913,2.228.517,6.282,2.9,11.926,3.89,12.051a2.086,2.086,0,0,0,2.107-1.136c3.465-4.919.295-15.888-5.34-18.014a4.924,4.924,0,0,0-5.91,1.841c-1.474,2.542-.628,6.49,2.691,9.331Z" transform="translate(-100.034 -178.34)" fill="#fff"/>
          <path id="Path_2" data-name="Path 2" d="M147.988,248.26a12.032,12.032,0,0,1,9.8,9.055,12.48,12.48,0,0,1-4.6,13.226,21.112,21.112,0,0,1-5.567,2.769,1.179,1.179,0,0,1-1.541-1.3,7.76,7.76,0,0,0-.59-4.571c-.86-1.74-2.522-2-4.247-2.068-1.252-.048-2.513,0-3.755-.15-6.992-.942-11.868-7.417-7.485-14.936-1.165,7.644,4.832,12.81,11.471,12.264,4.228-.343,7.538,2.145,7.466,6.881C157.314,265.8,156.744,254.866,147.988,248.26Z" transform="translate(-114.662 -214.474)" fill="#fff"/>
          <path id="Path_3" data-name="Path 3" d="M233.062,289.607c-1.189,0-2.648-.237-3.112-1.508-.512-1.416.966-2.329,2.8-2.595,3.9-.565,5.407-2.967,5.523-6.581.039-1.184.072-3,1.45-3.233,1.749-.295,2.2,1.831,2.387,3.025C242.968,284.166,239.827,289.283,233.062,289.607Z" transform="translate(-167.12 -228.635)" fill="#fff"/>
          <path id="Path_4" data-name="Path 4" d="M194.323,336.118c-.222,5.064-3.552,7.785-8.379,8.669-1.276.237-3,.14-3.354-1.358-.309-1.29,1.005-1.933,2.257-2.344,3.141-.966,5.315-2.856,5.8-6.364.15-1.14.164-2.875,1.933-2.619C193.908,332.291,194.323,334.456,194.323,336.118Z" transform="translate(-142.675 -257.789)" fill="#fff"/>
          <path id="Path_5" data-name="Path 5" d="M255.1,336.658c0,6.866-4.953,10.355-10.147,10.35-1.063,0-2.764-.232-3.059-1.247s1.058-1.372,1.894-1.5c4.305-.667,7.968-2.948,8.621-9.181.082-.783.556-1.648,1.382-1.377C254.822,334.03,254.972,335.513,255.1,336.658Z" transform="translate(-173.325 -258.605)" fill="#fff"/>
        </g>
      </g>
    </g>
    <g id="feeding_bottle" data-name="feeding bottle" transform="translate(295.424 968.019)">
      <path id="Path_6" data-name="Path 6" d="M629.5,242.089a3.639,3.639,0,0,0,.348-1.539v-9.215a3.69,3.69,0,0,0-3.686-3.686h0a11.379,11.379,0,0,0-2.8-7.85,19.393,19.393,0,0,0-4.718-3.717,7.459,7.459,0,0,1-2.744-2.287,12.651,12.651,0,0,1,.308-3.033c.337-1.988.689-4.044.187-5.73l-.034-.122c-.918-3.258-3.2-4.91-6.782-4.91s-5.864,1.651-6.782,4.911l-.035.121c-.506,1.685-.153,3.746.186,5.735a12.629,12.629,0,0,1,.308,3.033,7.462,7.462,0,0,1-2.743,2.284,19.414,19.414,0,0,0-4.719,3.717,11.38,11.38,0,0,0-2.8,7.849h0a3.691,3.691,0,0,0-3.686,3.686v9.214a3.651,3.651,0,0,0,.347,1.539,12.912,12.912,0,0,0-6.8,11.362V305.06a12.916,12.916,0,0,0,12.9,12.9H623.4a12.916,12.916,0,0,0,12.9-12.9V253.452A12.911,12.911,0,0,0,629.5,242.089Zm-30.989-19.8a15.849,15.849,0,0,1,3.906-3.049,10.712,10.712,0,0,0,3.995-3.539c.87-1.394.543-3.317.163-5.544a12.018,12.018,0,0,1-.286-4.067l.049-.173c.253-.885.627-2.223,3.235-2.223s2.984,1.338,3.235,2.224l.051.173a12.109,12.109,0,0,1-.288,4.064c-.379,2.229-.708,4.155.169,5.549a10.688,10.688,0,0,0,3.995,3.539,15.833,15.833,0,0,1,3.906,3.049,7.785,7.785,0,0,1,1.836,5.363h-25.8a7.822,7.822,0,0,1,1.836-5.369Zm-5.527,18.261v-9.215h33.177l-.006,9.215Zm39.628,64.511a9.226,9.226,0,0,1-9.216,9.215H595.749a9.226,9.226,0,0,1-9.216-9.215V253.452a9.226,9.226,0,0,1,9.216-9.216H623.4a9.226,9.226,0,0,1,9.216,9.216Z" transform="translate(-582.81 -200)" fill="#fff"/>
      <path id="Path_7" data-name="Path 7" d="M825.4,1381.245H814.344a1.843,1.843,0,1,0,0,3.687H825.4a1.843,1.843,0,1,0,0-3.687Z" transform="translate(-793.11 -1281.715)" fill="#fff"/>
      <path id="Path_8" data-name="Path 8" d="M825.4,1250H814.344a1.843,1.843,0,1,0,0,3.687H825.4a1.843,1.843,0,1,0,0-3.687Z" transform="translate(-793.11 -1161.524)" fill="#fff"/>
      <path id="Path_9" data-name="Path 9" d="M825.4,1118.745H814.344a1.843,1.843,0,1,0,0,3.687H825.4a1.843,1.843,0,1,0,0-3.687Z" transform="translate(-793.11 -1041.333)" fill="#fff"/>
      <path id="Path_10" data-name="Path 10" d="M825.4,987.5H814.344a1.843,1.843,0,1,0,0,3.687H825.4a1.843,1.843,0,1,0,0-3.687Z" transform="translate(-793.11 -921.142)" fill="#fff"/>
      <path id="Path_11" data-name="Path 11" d="M825.4,856.245H814.344a1.843,1.843,0,1,0,0,3.687H825.4a1.843,1.843,0,1,0,0-3.687Z" transform="translate(-793.11 -800.951)" fill="#fff"/>
    </g>
    <g id="zzz" transform="translate(-1098.704 -82.885)">
      <path id="Path_12" data-name="Path 12" d="M1935.869,1220.887H1921.6v-2.3l9.081-12.169h-8.426v-3.25h13.589v2.236l-8.882,12.245h8.907Z" transform="translate(-419.386 -106.755)" fill="#fff"/>
      <path id="Path_13" data-name="Path 13" d="M1540.02,1101.394H1532V1100.1l5.1-6.837h-4.732v-1.826h7.636v1.256l-4.991,6.879h5.005Z" transform="translate(-47.134)" fill="#fff"/>
      <path id="Path_14" data-name="Path 14" d="M2226.312,1853.6H2212.75v-2.182l8.63-11.566h-8.008v-3.088h12.916v2.125l-8.442,11.634h8.466Z" transform="translate(-697.573 -712.135)" fill="#fff"/>
      <path id="Path_15" data-name="Path 15" d="M1500.624,2430.231H1482.67v-2.892l11.425-15.311h-10.6v-4.088h17.1v2.813l-11.176,15.406h11.208Z" transform="translate(0 -1257.882)" fill="#fff"/>
    </g>
  </g>
</svg>
