<svg xmlns="http://www.w3.org/2000/svg" width="177.9" height="203.083" viewBox="0 0 177.9 203.083">
  <g id="parent_5" transform="translate(0 0.01)">
    <path id="Path_46" data-name="Path 46" d="M1851.342,1154.324a1.043,1.043,0,0,1-.979-.647.909.909,0,0,1,.265-1.014c7.04-6.324,11.576-11.806,14.25-17.223a49.686,49.686,0,0,1-16.7-14.845,37.176,37.176,0,0,1-4.713-9.464,33.416,33.416,0,0,1-1.66-10.379,34.135,34.135,0,0,1,4.515-16.859,44.729,44.729,0,0,1,12.29-13.739,60.711,60.711,0,0,1,18.2-9.246,74.843,74.843,0,0,1,44.524,0,60.743,60.743,0,0,1,18.2,9.246,44.763,44.763,0,0,1,12.29,13.739,33.732,33.732,0,0,1,0,33.718,44.733,44.733,0,0,1-12.29,13.739,60.728,60.728,0,0,1-18.2,9.245,73.186,73.186,0,0,1-22.262,3.388,75.1,75.1,0,0,1-14.912-1.483,50.946,50.946,0,0,1-12.208,6.509,128.6,128.6,0,0,1-20.375,5.293A1.2,1.2,0,0,1,1851.342,1154.324Zm71.779-48.65a4.828,4.828,0,1,0,4.828,4.827A4.828,4.828,0,0,0,1923.121,1105.674Zm-24.058,0a4.828,4.828,0,1,0,4.828,4.827A4.827,4.827,0,0,0,1899.063,1105.674Zm-24.058,0a4.828,4.828,0,1,0,4.827,4.827A4.828,4.828,0,0,0,1875,1105.674Z" transform="translate(-1778.75 -1015.724)" fill="#fcfcfc"/>
    <path id="Path_47" data-name="Path 47" d="M1894.408,1053.094c31.45,0,56.946,19.215,56.946,42.917s-25.5,42.917-56.946,42.917a74.62,74.62,0,0,1-14.984-1.5c-7.281,5.2-14.518,8.329-32.57,11.829a.891.891,0,0,1-.166.016.642.642,0,0,1-.5-1.111c6.945-6.239,11.683-11.844,14.455-17.589-14.057-7.815-23.177-20.383-23.177-34.558,0-23.7,25.5-42.917,56.946-42.917m24.058,57.813a5.145,5.145,0,1,0-5.144-5.144,5.144,5.144,0,0,0,5.144,5.144m-24.058,0a5.145,5.145,0,1,0-5.144-5.144,5.145,5.145,0,0,0,5.144,5.144m-24.058,0a5.145,5.145,0,1,0-5.145-5.145,5.145,5.145,0,0,0,5.145,5.145m24.058-58.447a73.5,73.5,0,0,0-22.358,3.4,65.191,65.191,0,0,0-9.768,3.993,57.532,57.532,0,0,0-8.522,5.3,49.357,49.357,0,0,0-7.044,6.434,41.79,41.79,0,0,0-5.332,7.4,36.168,36.168,0,0,0-3.377,8.2,33.571,33.571,0,0,0,.5,19.293,37.406,37.406,0,0,0,4.753,9.545,45.163,45.163,0,0,0,7.415,8.307,54.854,54.854,0,0,0,9.137,6.486c-2.672,5.293-7.152,10.668-14.044,16.859a1.22,1.22,0,0,0-.349,1.366,1.361,1.361,0,0,0,1.275.85,1.526,1.526,0,0,0,.286-.028,128.858,128.858,0,0,0,20.427-5.307,51.354,51.354,0,0,0,12.169-6.465,75.449,75.449,0,0,0,14.84,1.462,73.5,73.5,0,0,0,22.358-3.4,65.25,65.25,0,0,0,9.768-3.993,57.626,57.626,0,0,0,8.522-5.3,49.4,49.4,0,0,0,7.044-6.435,41.751,41.751,0,0,0,5.332-7.4,36.159,36.159,0,0,0,3.377-8.2,33.551,33.551,0,0,0,0-17.631,36.172,36.172,0,0,0-3.377-8.2,41.784,41.784,0,0,0-5.332-7.4,49.363,49.363,0,0,0-7.044-6.434,57.528,57.528,0,0,0-8.522-5.3,65.162,65.162,0,0,0-9.768-3.993,73.492,73.492,0,0,0-22.358-3.4Zm24.058,57.813a4.511,4.511,0,1,1,4.511-4.511A4.511,4.511,0,0,1,1918.468,1110.273Zm-24.058,0a4.511,4.511,0,1,1,4.511-4.511A4.511,4.511,0,0,1,1894.41,1110.273Zm-24.058,0a4.511,4.511,0,1,1,4.51-4.51A4.511,4.511,0,0,1,1870.352,1110.273Z" transform="translate(-1774.095 -1010.985)"/>
    <path id="Path_48" data-name="Path 48" d="M868.133,605.24A16.532,16.532,0,0,1,858.8,602.7a14.183,14.183,0,0,1-4.8-5.574,19.861,19.861,0,0,1-2-8.064l.259-170.008a16.534,16.534,0,0,1,2.528-9.309,14.157,14.157,0,0,1,5.551-4.8,19.923,19.923,0,0,1,8.1-2.019l82.365.127a16.527,16.527,0,0,1,9.329,2.542,14.162,14.162,0,0,1,4.8,5.577,19.853,19.853,0,0,1,2,8.064l-.031,20.493-.3.02c-2.388.157-4.788.424-7.132.794l-.367.058.015-10.236-99.089-.153-.224,148.253,99.088.151.067-43.952.366.058c2.34.374,4.739.646,7.131.809l.3.02-.081,53.688a16.543,16.543,0,0,1-2.528,9.308,14.159,14.159,0,0,1-5.551,4.8,19.924,19.924,0,0,1-8.1,2.02Zm37.819-17.31a2.491,2.491,0,0,0-2.488,2.488v4.341a2.491,2.491,0,0,0,2.488,2.488h6.75a2.491,2.491,0,0,0,2.488-2.488v-4.341a2.491,2.491,0,0,0-2.488-2.488ZM891.364,414.076a2.219,2.219,0,0,0-.887.228,1.527,1.527,0,0,0-.824,1.479l-.005,3.672a2.234,2.234,0,0,0,.227.887,1.533,1.533,0,0,0,1.479.824L931,421.23a2.228,2.228,0,0,0,.887-.228,1.524,1.524,0,0,0,.824-1.478l.006-3.676a2.236,2.236,0,0,0-.228-.887,1.525,1.525,0,0,0-1.477-.824l-39.65-.063Z" transform="translate(-851.683 -402.613)" fill="#fcfcfc"/>
    <path id="Path_49" data-name="Path 49" d="M863.755,398.544h0l82.364.127c15.84.023,15.815,15.862,15.815,15.862l-.027,20.2q-3.621.238-7.162.8l.015-10.182-99.725-.151-.226,148.887,99.722.151.067-43.9q3.542.565,7.162.813l-.081,53.392c-.025,15.79-15.765,15.815-15.863,15.815h0l-82.364-.127c-15.843-.023-15.82-15.86-15.82-15.86l.259-170.009c.022-15.792,15.769-15.815,15.862-15.815m62.561,18.307a1.98,1.98,0,0,0,2.028-2.022l.006-3.676a1.983,1.983,0,0,0-2.022-2.028l-39.649-.063a1.979,1.979,0,0,0-2.028,2.023l-.005,3.673a1.981,1.981,0,0,0,2.022,2.028l39.648.063M901.269,592.871h6.75a2.8,2.8,0,0,0,2.8-2.8v-4.341a2.8,2.8,0,0,0-2.8-2.8h-6.75a2.8,2.8,0,0,0-2.8,2.8v4.341a2.8,2.8,0,0,0,2.8,2.8m-37.512-194.96h0a20.267,20.267,0,0,0-8.239,2.053,14.479,14.479,0,0,0-5.673,4.911,16.814,16.814,0,0,0-2.581,9.484L847,584.367a20.21,20.21,0,0,0,2.034,8.206,14.489,14.489,0,0,0,4.909,5.7,16.866,16.866,0,0,0,9.507,2.6l82.364.127a20.28,20.28,0,0,0,8.244-2.054,14.486,14.486,0,0,0,5.672-4.911,16.853,16.853,0,0,0,2.581-9.483l.081-53.391v-.593l-.592-.041c-2.382-.162-4.771-.433-7.1-.806l-.733-.117v.741L953.9,573.6l-98.455-.15.224-147.62,98.456.149-.016,9.544v.743l.733-.116c2.336-.368,4.726-.634,7.1-.79l.591-.039v-.593l.03-20.2a20.2,20.2,0,0,0-2.034-8.206,14.486,14.486,0,0,0-4.909-5.7,16.838,16.838,0,0,0-9.507-2.6l-82.364-.127Zm21.525,16.85.005-3.67a1.2,1.2,0,0,1,.634-1.19,1.9,1.9,0,0,1,.761-.2l39.646.063a1.2,1.2,0,0,1,1.188.634,1.918,1.918,0,0,1,.2.761l-.006,3.67a1.2,1.2,0,0,1-.634,1.188,1.9,1.9,0,0,1-.764.2l-39.645-.063a1.2,1.2,0,0,1-1.188-.634,1.9,1.9,0,0,1-.2-.761Zm15.987,177.477a2.173,2.173,0,0,1-2.171-2.171v-4.341a2.173,2.173,0,0,1,2.171-2.171h6.75a2.173,2.173,0,0,1,2.171,2.171v4.341a2.173,2.173,0,0,1-2.171,2.171Z" transform="translate(-847 -397.92)"/>
  </g>
</svg>
