<svg xmlns="http://www.w3.org/2000/svg" width="236.348" height="219.26" viewBox="0 0 236.348 219.26">
  <g id="parent_2" transform="translate(-291.502 -1410.345)">
    <g id="Mother_care" data-name="Mother care" transform="translate(374.842 1411.481)">
      <path id="Path_16" data-name="Path 16" d="M528.116,325.534c.03-.219.06-.456.09-.687a9.2,9.2,0,0,1-8.569-9.29v-7.693a1.574,1.574,0,0,1,.025-.249l.021-6.29a1.583,1.583,0,0,1,.079-.473v-.414a69.824,69.824,0,0,1-7.028-.543,1.621,1.621,0,0,1-.383-.1c-19.2-7.79-20.5-29.4-20.542-30.315a1.619,1.619,0,0,1,2.519-1.428c3.8,2.543,7.613,3.329,11.341,2.337,7.965-2.128,13.566-11.627,14.852-13.988a26.637,26.637,0,0,1,10.6-28.725q.565-.389,1.145-.749a42.68,42.68,0,0,0-38.056,75.505,1.658,1.658,0,0,1,.188.152l33.508,24.431C527.975,326.52,528.051,326.029,528.116,325.534Z" transform="translate(-475.71 -224.6)" fill="none" stroke="#fff" stroke-width="2"/>
      <path id="Path_17" data-name="Path 17" d="M1217.764,251.261a42.635,42.635,0,0,0-60.174-21.22,26.544,26.544,0,0,1,3.643,35.042,1.608,1.608,0,0,1,.326.995,41.155,41.155,0,0,1-.5,5.778,21.634,21.634,0,0,1,8.807-2,16.538,16.538,0,0,1,7.312,1.653c.064.031.122.068.186.1s.158.069.236.108a14.424,14.424,0,0,1,5.461,4.63,22.76,22.76,0,0,1,4.268,10.556,35.929,35.929,0,0,1-1.083,14.967,8.86,8.86,0,0,1,4.284,5.637,10.514,10.514,0,0,1,.279,3.548l11.524-8.4a1.755,1.755,0,0,1,.187-.151,42.669,42.669,0,0,0,15.249-51.234Z" transform="translate(-1068.994 -224.654)" fill="none" stroke="#fff" stroke-width="2"/>
      <path id="Path_18" data-name="Path 18" d="M1253.456,958.8a34.763,34.763,0,0,1-6.916,5.666l.213,1.022,8.18-5.972a8.271,8.271,0,0,1-.927-.4C1253.82,959.023,1253.638,958.91,1253.456,958.8Z" transform="translate(-1146.395 -863.452)" fill="none" stroke="#fff" stroke-width="2"/>
      <path id="Path_19" data-name="Path 19" d="M655.16,255.773a23.38,23.38,0,0,0,4.9,19,1.619,1.619,0,1,1-2.508,2.047,26.637,26.637,0,0,1-3.716-6.042c-2.619,4.133-8,11.131-15.414,13.113a15.792,15.792,0,0,1-11.055-1.1c1.088,5.959,4.912,18.913,17.917,24.3.671.083,3.043.347,6.412.451l.056-6.611c0-6.751,3.69-12.063,8.4-12.063A6.439,6.439,0,0,1,663.739,290a1.609,1.609,0,0,1,1.349-.292,41.483,41.483,0,0,0,15.061.547,32.9,32.9,0,0,0,4.5-1.087A28.887,28.887,0,0,1,691.3,287.8a34.021,34.021,0,0,1,4.674-3.612,34.1,34.1,0,0,0,.834-5.208,26.575,26.575,0,0,1-6.912,4.908,1.609,1.609,0,0,1-.712.166,1.689,1.689,0,0,1-.389-.055,18.6,18.6,0,0,1-8.93,2.359,17.314,17.314,0,0,1-3.1-.28,18.665,18.665,0,0,1-12.59-9.119,20.365,20.365,0,0,1-2.794-13.784,1.619,1.619,0,1,1,3.186.58c-1.4,7.684,3.765,17.5,12.777,19.141a15.45,15.45,0,0,0,12.021-3.094,16.942,16.942,0,0,0,6.68-10.319,13.9,13.9,0,0,0-1.94-9.825,35.922,35.922,0,0,1-18.53,5.288c-1.1,0-2.219-.052-3.376-.165a1.618,1.618,0,0,1-1.454-1.768,1.59,1.59,0,0,1,.318-.808,1.622,1.622,0,0,1,1.45-.649c.657.065,1.3.1,1.938.121.791.027,1.568.026,2.328-.006A33.721,33.721,0,0,0,694,255.842a26.8,26.8,0,0,0,3.459-2.707,1.619,1.619,0,0,1,2.284,2.3,26.793,26.793,0,0,1-2.942,2.434,17.156,17.156,0,0,1,2.419,12.2c-.012.064-.027.13-.04.19a23.394,23.394,0,1,0-44.02-14.487Z" transform="translate(-607.615 -234.983)" fill="none" stroke="#fff" stroke-width="2"/>
      <path id="Path_20" data-name="Path 20" d="M1063.777,1574.969c-1.866.13-3.765.247-5.667.343v33.258a7.716,7.716,0,1,0,15.432,0v-34.13c-.626.038-1.241.069-1.833.09C1069.085,1574.619,1066.386,1574.8,1063.777,1574.969Z" transform="translate(-982.43 -1399.161)" fill="none" stroke="#fff" stroke-width="2"/>
      <path id="Path_21" data-name="Path 21" d="M926.975,1576.308c-2.193,0-4.183-.081-6.087-.245l-.273-.023q-3.347-.284-6.3-.649V1609.4a7.715,7.715,0,0,0,15.43,0v-33.132c-.926.026-1.85.043-2.773.043Z" transform="translate(-857.309 -1399.988)" fill="none" stroke="#fff" stroke-width="2"/>
      <path id="Path_22" data-name="Path 22" d="M921.14,683.035c-.13,1.357-.26,2.715-.39,4.055h12.464q.039-1.118.149-2.258a1.947,1.947,0,0,1,.175-2.112c.032-.042.071-.074.106-.112a42.339,42.339,0,0,1,3.8-11.907,43.446,43.446,0,0,1,4.7-7.568,1.938,1.938,0,0,1,.27-.832c-.519.144-1.049.295-1.571.447a35.626,35.626,0,0,1-4.969,1.184,46,46,0,0,1-13.668-.09c.071,1.169.061,2.68-.009,4.647C922.068,672.021,921.713,676.917,921.14,683.035Z" transform="translate(-862.904 -605.448)" fill="none" stroke="#fff" stroke-width="2"/>
      <path id="Path_23" data-name="Path 23" d="M830.914,999.068q-1.149.53-2.312.934c-.01.013-.018.029-.03.042a1.937,1.937,0,0,1-1.479.682,1.965,1.965,0,0,1-.6-.1,19.835,19.835,0,0,1-4.674.576,16.527,16.527,0,0,1-7.311-1.653,16.051,16.051,0,0,1-4.035-2.82H789.5c-.064.509-.112.882-.139,1.088a315.227,315.227,0,0,1-10.115,47.831q-.249.842-.5,1.719c-1.311,4.544-2.8,9.7-5.806,13.561-.844,1.083-.612,1.611-.519,1.818.927,2.119,8.007,5.1,24.911,6.541l.279.025c1.809.157,3.708.232,5.806.232h0c3.8,0,7.7-.26,11.466-.505,2.636-.174,5.361-.353,8.035-.445,8.108-.274,14.212-1.929,17.189-4.66.519-.6,1.9-4.564-2.424-29.929C835.776,1022.846,833.249,1010.282,830.914,999.068Z" transform="translate(-733.743 -896.458)" fill="none" stroke="#fff" stroke-width="2"/>
      <path id="Path_24" data-name="Path 24" d="M1145.78,647.149a8.8,8.8,0,0,1,1.019.06,34.219,34.219,0,0,0,1.269-10.066c-.048.105-.094.213-.146.318a14.517,14.517,0,1,1-24.893-14.75,32.032,32.032,0,0,0-7.229,6.25c.537,2.316,3.181,11.994,11.052,18.932a1.922,1.922,0,0,1,.473.4,28.44,28.44,0,0,0,9.13,5.193c.049-.1.088-.21.142-.314A10.577,10.577,0,0,1,1145.78,647.149Z" transform="translate(-1032.63 -570.998)" fill="none" stroke="#fff" stroke-width="2"/>
      <path id="Path_25" data-name="Path 25" d="M1041.642,852.7l-.182-.083v.083Z" transform="translate(-967.941 -771.058)" fill="none" stroke="#fff" stroke-width="2"/>
      <path id="Path_26" data-name="Path 26" d="M1112.9,993.528h-3.173a13.34,13.34,0,0,0,5.691,1.235,16.05,16.05,0,0,0,1.614-.083,20.659,20.659,0,0,1-1.3-1.629A8.759,8.759,0,0,1,1112.9,993.528Z" transform="translate(-1027.348 -893.255)" fill="none" stroke="#fff" stroke-width="2"/>
      <path id="Path_27" data-name="Path 27" d="M1044.93,715.819c4.835,3.191,11.891,1.663,15.733.439a43.789,43.789,0,0,1-9.44-16.028,41.023,41.023,0,0,0-2.815,4.893A39.719,39.719,0,0,0,1044.93,715.819Z" transform="translate(-970.961 -638.453)" fill="none" stroke="#fff" stroke-width="2"/>
      <path id="Path_28" data-name="Path 28" d="M1172.145,866.262a28.084,28.084,0,0,0,10.558-7.2,10.007,10.007,0,0,1-1.87-6.951,31.89,31.89,0,0,1-9.858-5.453c-.626.243-1.489.553-2.529.87-.13.3-.3.7-.466,1.169a9.453,9.453,0,0,1,1.774,14.922A17.864,17.864,0,0,0,1172.145,866.262Z" transform="translate(-1078.035 -765.872)" fill="none" stroke="#fff" stroke-width="2"/>
      <path id="Path_29" data-name="Path 29" d="M1192.126,601.6a11.279,11.279,0,1,0,5.193,15.075A11.264,11.264,0,0,0,1192.126,601.6Z" transform="translate(-1084.937 -551.638)" fill="none" stroke="#fff" stroke-width="2"/>
      <path id="Path_30" data-name="Path 30" d="M876.923,692.168H846.759a1.614,1.614,0,0,1-.819-3.013c.889-8.9,1.611-17.873,1.55-22.2-.936-1.558-2.207-2.543-3.58-2.543-2.8,0-5.164,4.047-5.164,8.838l-.122,14.467h0l-.078,9.245h-.006v1.268a5.944,5.944,0,0,0,5.793,6.075h32.595a6.074,6.074,0,0,0-.005-12.136Z" transform="translate(-791.367 -607.284)" fill="none" stroke="#fff" stroke-width="2"/>
      <path id="Path_31" data-name="Path 31" d="M1301.018,836.448a5.228,5.228,0,0,0-2.377-.558,7.309,7.309,0,0,0-6.285,4.236c-1.779,3.537-.788,7.641,2.207,9.149a5.244,5.244,0,0,0,2.377.558,7.31,7.31,0,0,0,6.285-4.238,7.79,7.79,0,0,0,.659-5.439A5.585,5.585,0,0,0,1301.018,836.448Z" transform="translate(-1185.493 -756.5)" fill="none" stroke="#fff" stroke-width="2"/>
    </g>
    <g id="Medical_symbol" data-name="Medical symbol" transform="translate(-639.78 515.695)">
      <g id="Layer_1" data-name="Layer 1" transform="translate(932.782 963.309)">
        <path id="Path_32" data-name="Path 32" d="M936.076,878.7H911.458V854.08H878.7V878.7H854.08v32.76H878.7v24.618h32.76V911.458h24.618Z" transform="translate(-854.08 -854.08)" fill="none" stroke="#fff" stroke-linecap="round" stroke-linejoin="round" stroke-width="3"/>
      </g>
    </g>
  </g>
</svg>
