<svg xmlns="http://www.w3.org/2000/svg" width="168.945" height="157.765" viewBox="0 0 168.945 157.765">
  <g id="parent_4" transform="translate(-1.5 -5.5)">
    <path id="Path_36" data-name="Path 36" d="M18,60.388a8.388,8.388,0,0,0,8.388,8.388H48.755a8.388,8.388,0,1,0,0-16.775H26.388A8.388,8.388,0,0,0,18,60.388Zm33.551,0a2.8,2.8,0,0,1-2.8,2.8H26.388a2.8,2.8,0,0,1,0-5.592H48.755A2.8,2.8,0,0,1,51.551,60.388Z" transform="translate(28.734 82.611)" fill="#fff" stroke="#707070" stroke-width="1"/>
    <ellipse id="Ellipse_1" data-name="Ellipse 1" cx="3" cy="2.5" rx="3" ry="2.5" transform="translate(29.88 20.348)" fill="#fff" stroke="#707070" stroke-width="1"/>
    <ellipse id="Ellipse_2" data-name="Ellipse 2" cx="3" cy="2.5" rx="3" ry="2.5" transform="translate(40.88 20.348)" fill="#fff" stroke="#707070" stroke-width="1"/>
    <ellipse id="Ellipse_3" data-name="Ellipse 3" cx="3" cy="2.5" rx="3" ry="2.5" transform="translate(51.88 20.348)" fill="#fff" stroke="#707070" stroke-width="1"/>
    <path id="Path_37" data-name="Path 37" d="M9.8,93.2a2.8,2.8,0,0,0,2.8-2.8V19.979a8.388,8.388,0,0,1,8.388-8.388H93.672a8.388,8.388,0,0,1,5.592,2.1,2.8,2.8,0,1,0,3.691-4.194A13.979,13.979,0,0,0,93.672,6H20.979A13.979,13.979,0,0,0,7,19.979V90.408A2.8,2.8,0,0,0,9.8,93.2Z" transform="translate(8.979 0)" fill="#fff" stroke="#707070" stroke-width="1"/>
    <path id="Path_38" data-name="Path 38" d="M104.743,52.54a2.8,2.8,0,0,0-2.8,2.8V65.01A8.388,8.388,0,0,1,93.559,73.4H20.866a8.388,8.388,0,0,1-8.22-6.654,2.8,2.8,0,1,0-5.452,1.062A13.979,13.979,0,0,0,20.866,78.989H93.559A13.979,13.979,0,0,0,107.539,65.01V55.336A2.8,2.8,0,0,0,104.743,52.54Z" transform="translate(9.092 83.581)" fill="#fff" stroke="#707070" stroke-width="1"/>
    <ellipse id="Ellipse_4" data-name="Ellipse 4" cx="3" cy="2.5" rx="3" ry="2.5" transform="translate(113.88 59.348)" fill="#fff" stroke="#707070" stroke-width="1"/>
    <path id="Path_39" data-name="Path 39" d="M125.71,81.388l-21.7-17.922L100.3,52.283a2.8,2.8,0,0,0-.671-1.09L79.857,31.426a8.388,8.388,0,0,0-11.855,0,8.639,8.639,0,0,0-1.789,2.6,8.388,8.388,0,0,0-12.526,6.822A8.192,8.192,0,0,0,48.1,43.28a8.807,8.807,0,0,0-1.65,2.321l-6.123-6.179A8.432,8.432,0,0,0,28.469,51.416L45.244,68.192h-5.2a8.388,8.388,0,0,0,0,16.775h21.92l2.069,2.1a2.964,2.964,0,0,0,1.09.671l11.184,3.691L100.3,120.5a2.8,2.8,0,1,0,4.306-3.579L80.025,87.064a2.628,2.628,0,0,0-1.258-.867L67.583,82.451l-2.377-2.46a2.8,2.8,0,0,0-1.985-.811H40.044a2.8,2.8,0,0,1,0-5.592H51.926a2.883,2.883,0,0,0,2.1-4.781l-21.5-21.472a2.8,2.8,0,0,1,3.942-3.97L48.348,55.219,56.232,63.1a2.8,2.8,0,1,0,3.97-3.942l-8.024-7.745a2.788,2.788,0,1,1,3.942-3.942L64,55.358a2.807,2.807,0,1,0,4-3.942L60.09,43.5a2.8,2.8,0,0,1,3.942-3.942l3.97,3.8,3.942,3.97a2.807,2.807,0,1,0,3.97-3.97l-3.97-3.942a2.807,2.807,0,1,1,3.97-3.97l19.292,19.32,3.746,11.184a2.992,2.992,0,0,0,.867,1.258l22.367,18.425a2.76,2.76,0,1,0,3.523-4.25Z" transform="translate(43.037 41.256)" fill="#fff" stroke="#707070" stroke-width="1"/>
    <path id="Path_41" data-name="Path 41" d="M65.122,51.551a2.8,2.8,0,0,0,2.8-2.8V26.388A8.388,8.388,0,0,0,59.53,18H20.388A8.388,8.388,0,0,0,12,26.388V65.53a8.388,8.388,0,0,0,8.388,8.388H43.649a2.8,2.8,0,0,0,0-5.592H20.388a2.8,2.8,0,0,1-2.8-2.8V26.388a2.8,2.8,0,0,1,2.8-2.8H59.53a2.8,2.8,0,0,1,2.8,2.8V48.755A2.8,2.8,0,0,0,65.122,51.551Z" transform="translate(17.959 21.551)" fill="#fff" stroke="#707070" stroke-width="1"/>
    <path id="Path_42" data-name="Path 42" d="M34,19.388V33.367a8.388,8.388,0,0,0,5.592,7.912V52.938A2.807,2.807,0,0,0,44.4,54.9L57.15,41.755H75.938a8.388,8.388,0,0,0,8.388-8.388V19.388A8.388,8.388,0,0,0,75.938,11H42.388A8.388,8.388,0,0,0,34,19.388Zm44.734,0V33.367a2.8,2.8,0,0,1-2.8,2.8H55.976A2.8,2.8,0,0,0,53.963,37L45.184,46.06v-7.1a2.8,2.8,0,0,0-2.8-2.8,2.8,2.8,0,0,1-2.8-2.8V19.388a2.8,2.8,0,0,1,2.8-2.8H75.938A2.8,2.8,0,0,1,78.734,19.388Z" transform="translate(57.468 8.979)" fill="#fff" stroke="#707070" stroke-width="1"/>
    <path id="Path_43" data-name="Path 43" d="M40.8,21.592H51.979a2.8,2.8,0,1,0,0-5.592H40.8a2.8,2.8,0,0,0,0,5.592Z" transform="translate(64.652 17.959)" fill="#fff" stroke="#707070" stroke-width="1"/>
    <ellipse id="Ellipse_5" data-name="Ellipse 5" cx="3" cy="2.5" rx="3" ry="2.5" transform="translate(124.88 34.348)" fill="#fff" stroke="#707070" stroke-width="1"/>
    <path id="Path_44" data-name="Path 44" d="M26.571,53.96a2.8,2.8,0,0,0-1.37-2.377L11.222,43.391A2.8,2.8,0,0,0,7,45.8V62.571a2.781,2.781,0,0,0,4.25,2.376l13.979-8.583A2.8,2.8,0,0,0,26.571,53.96ZM12.592,57.566V50.688l5.76,3.495Z" transform="translate(8.979 66.448)" fill="#fff" stroke="#707070" stroke-width="1"/>
    <path id="Path_45" data-name="Path 45" d="M46.734,61.367A22.367,22.367,0,1,0,24.367,83.734,22.367,22.367,0,0,0,46.734,61.367Zm-39.142,0A16.775,16.775,0,1,1,24.367,78.142,16.775,16.775,0,0,1,7.592,61.367Z" transform="translate(0 59.264)" fill="#fff" stroke="#707070" stroke-width="1"/>
  </g>
</svg>
